<svg xmlns="http://www.w3.org/2000/svg" width="1840" height="1840" viewBox="0 0 1840 1840" version="1.1"><path d="M 811.317 125 C 811.683 126.375, 812.908 136.275, 814.040 147 C 815.172 157.725, 817.201 173.828, 818.549 182.784 C 819.897 191.741, 821 203.306, 821 208.486 C 821 213.665, 821.675 220.494, 822.500 223.661 C 823.343 226.898, 823.986 233.598, 823.968 238.960 C 823.940 247.567, 823.793 248.310, 822.468 246.559 C 821.447 245.209, 820.972 241.858, 820.909 235.559 L 820.819 226.500 818.972 234.500 C 815.586 249.171, 815.448 255.813, 818.288 267.284 C 821.627 280.766, 824.021 296.829, 823.985 305.500 C 823.956 312.452, 823.943 312.484, 822.149 310.151 C 819.877 307.197, 816.404 295.509, 814.936 285.871 C 813.413 275.879, 813.030 274.915, 811.814 278 C 810.292 281.862, 809.766 291.492, 810.860 295.455 C 811.437 297.545, 811.463 298.786, 810.922 298.452 C 810.415 298.139, 810 297.099, 810 296.141 C 810 295.183, 809.538 293.938, 808.972 293.372 C 808.407 292.807, 807.374 289.548, 806.677 286.131 C 805.428 280.005, 803.853 277.812, 803.187 281.270 C 802.999 282.243, 803.766 286.068, 804.892 289.770 C 806.443 294.874, 806.965 299.520, 807.052 309 C 807.115 315.875, 807.226 325.100, 807.298 329.500 C 807.371 333.900, 807.264 338.850, 807.059 340.500 C 806.332 346.376, 809.065 362.324, 811.648 367.271 C 813.018 369.895, 813.953 372.820, 813.727 373.771 C 813.391 375.179, 813.111 375.035, 812.217 373 C 810.704 369.555, 807.705 365.534, 806.500 365.334 C 805.914 365.237, 805.453 368.340, 805.387 372.834 C 805.169 387.730, 805.531 387.568, 799.413 375.500 C 796.345 369.450, 793.423 364.073, 792.918 363.550 C 791.586 362.172, 791.828 366.481, 793.468 373.345 C 794.236 376.560, 794.619 379.830, 794.319 380.611 C 793.477 382.805, 795.951 397.849, 798.072 403.431 C 799.275 406.598, 799.622 408.778, 799.018 409.382 C 798.415 409.985, 797.831 409.723, 797.426 408.667 C 797.074 407.750, 796.209 407, 795.503 407 C 793.839 407, 791.946 402.860, 782.034 377.542 C 777.521 366.015, 773.006 354.972, 772 353.001 C 769.794 348.676, 761.964 326.605, 761.269 322.750 C 760.996 321.238, 760.424 320, 759.997 320 C 758.865 320, 755.386 312.114, 754.592 307.750 C 753.690 302.794, 752 302.946, 752 307.983 C 752 312.026, 754.921 323.617, 762.085 348 C 770.065 375.160, 772.552 384.342, 775.423 397.250 C 776.903 403.899, 769.428 387.939, 764.535 374 C 762.700 368.775, 759.560 360.457, 757.556 355.516 C 754.029 346.819, 750.535 335.923, 747.288 323.500 C 746.426 320.200, 745.381 317.275, 744.967 317 C 744.554 316.725, 742.514 312.337, 740.436 307.250 C 738.125 301.595, 736.095 298, 735.212 298 C 734.182 298, 733.959 298.646, 734.435 300.250 C 734.803 301.488, 735.367 304.198, 735.687 306.274 C 736.008 308.350, 736.659 310.289, 737.135 310.583 C 737.611 310.877, 738 311.557, 738 312.094 C 738 312.630, 736.617 311.494, 734.927 309.569 C 732.496 306.801, 731.800 305.016, 731.599 301.040 C 731.459 298.274, 730.970 295.671, 730.513 295.256 C 730.056 294.840, 729.979 295.400, 730.343 296.500 C 730.958 298.358, 730.908 298.375, 729.642 296.750 C 728.893 295.788, 727.807 295, 727.229 295 C 726.651 295, 725.170 292.863, 723.938 290.250 C 722.706 287.637, 720.926 284.600, 719.983 283.500 C 719.039 282.400, 717.471 279.363, 716.498 276.750 C 715.525 274.137, 714.411 272, 714.022 272 C 713.634 272, 712.746 270.087, 712.048 267.750 C 711.350 265.413, 709.740 261.700, 708.469 259.500 C 707.198 257.300, 705.396 253.138, 704.464 250.250 C 703.532 247.363, 702.363 245, 701.866 245 C 700.875 245, 700.975 245.507, 705.130 261.500 C 706.701 267.550, 707.990 274.160, 707.994 276.188 C 708.002 280.897, 710.212 290.576, 714.458 304.500 C 720.448 324.142, 723.291 334.411, 724.010 339 C 724.398 341.475, 725.030 344.400, 725.414 345.500 C 725.892 346.867, 725.383 346.580, 723.807 344.592 C 722.538 342.993, 719.838 339.733, 717.807 337.348 C 715.776 334.963, 711.542 328.171, 708.399 322.255 C 705.255 316.340, 700.729 308.666, 698.341 305.202 C 695.954 301.738, 694 298.545, 694 298.107 C 694 297.669, 693.100 296.495, 692 295.500 C 689.385 293.133, 689.426 294.955, 692.108 300.211 C 694.375 304.656, 695.735 308.388, 702.415 328.500 C 708.291 346.192, 708.767 348.974, 704.554 341 C 702.666 337.425, 700.148 332.025, 698.958 329 C 694.223 316.956, 692.499 312.960, 686.227 299.500 C 682.639 291.800, 678.705 284.150, 677.485 282.500 C 676.264 280.850, 671.990 272.975, 667.987 265 C 663.984 257.025, 659.604 248.750, 658.255 246.612 C 656.905 244.474, 654.995 240.874, 654.009 238.612 C 651.584 233.047, 650.299 236.038, 652.513 242.096 C 653.398 244.518, 654.590 248.075, 655.161 250 C 655.732 251.925, 656.772 254.175, 657.473 255 C 658.174 255.825, 659.315 258.300, 660.010 260.500 C 660.704 262.700, 662.295 266.356, 663.546 268.625 C 665.538 272.236, 665.640 272.932, 664.365 274.206 C 663.091 275.481, 663.482 277.425, 667.508 289.811 C 670.038 297.594, 673.475 306.975, 675.145 310.660 C 679.528 320.326, 683.978 332.723, 684.562 336.896 L 685.067 340.500 681.026 336 C 678.804 333.525, 675.792 329.363, 674.334 326.750 C 672.875 324.137, 671.304 322, 670.841 322 C 669.673 322, 669.707 322.150, 672.370 328.684 C 677.301 340.786, 680.438 348.814, 684.018 358.500 C 688.712 371.198, 696.020 389.195, 697.013 390.500 C 698.065 391.885, 703.621 405.966, 704.801 410.242 C 706.294 415.648, 704.772 416.701, 701.558 412.487 C 696.925 406.413, 697.487 409.459, 702.348 416.771 C 706.163 422.510, 711.551 433, 710.684 433 C 710.550 433, 708.653 430.464, 706.470 427.366 C 695.842 412.280, 685.353 401.313, 683.412 403.255 C 683.171 403.496, 684.163 406.349, 685.616 409.596 C 692.632 425.273, 693.931 429, 692.380 429 C 691.551 429, 687.330 425.625, 683 421.500 C 676.179 415.002, 673 412.761, 673 414.450 C 673 414.698, 674.558 419.205, 676.463 424.466 C 678.367 429.727, 679.675 434.812, 679.369 435.766 C 677.562 441.400, 676.590 443, 674.978 443 C 673.358 443, 664.601 433.835, 662.409 429.846 C 660.906 427.112, 652.164 418, 651.043 418 C 649.307 418, 649.862 420.130, 652.500 423.589 C 656.505 428.839, 655.452 430.653, 650.344 427.306 C 648.921 426.374, 646.897 425.548, 645.846 425.470 C 642.188 425.201, 631 412.652, 631 408.819 C 631 404.907, 634.057 405.624, 638.650 410.614 C 641.125 413.301, 642.830 414.600, 642.439 413.500 C 642.049 412.400, 641.222 409.372, 640.600 406.771 C 638.294 397.114, 634.782 396.844, 625.500 405.609 C 622.200 408.726, 617.700 412.412, 615.500 413.802 C 613.300 415.191, 611.050 416.869, 610.500 417.530 C 608.962 419.379, 598.207 427, 597.136 427 C 596.614 427, 593.333 423.941, 589.844 420.202 C 586.355 416.463, 580.350 410.888, 576.500 407.814 C 572.650 404.739, 567.949 400.599, 566.054 398.612 C 560.079 392.349, 559.044 394.539, 564.434 402.041 C 566.323 404.670, 568.847 408.741, 570.044 411.087 C 571.241 413.433, 574.327 417.636, 576.900 420.427 C 584.827 429.021, 587.484 433.074, 585.884 434.128 C 584.862 434.800, 582.340 432.797, 576.250 426.475 C 571.712 421.765, 568 418.207, 568 418.568 C 568 418.930, 570.339 423.668, 573.199 429.097 L 578.398 438.968 573.959 442.734 C 571.518 444.805, 565.016 451.025, 559.511 456.555 C 554.005 462.085, 543.938 471.760, 537.140 478.055 C 524.159 490.075, 511.109 504.440, 504.685 513.780 C 502.587 516.830, 497.521 522.931, 493.429 527.336 C 489.336 531.742, 484.788 537.406, 483.322 539.923 C 481.856 542.441, 478.310 547.875, 475.442 552 C 470.369 559.297, 451.689 595.022, 452.515 595.848 C 453.615 596.949, 460.225 589.486, 466.032 580.586 C 469.589 575.133, 474.130 568.686, 476.122 566.259 C 478.115 563.832, 480.357 560.643, 481.106 559.173 C 484.568 552.374, 489.995 544.878, 496.456 537.968 C 500.330 533.826, 505.165 528.201, 507.199 525.468 C 509.234 522.736, 512.471 518.475, 514.394 516 C 516.316 513.525, 521.029 507.444, 524.867 502.487 C 532.102 493.140, 567.422 457.622, 576.915 450.146 L 582.330 445.881 584.700 448.691 C 586.003 450.236, 588.160 453.150, 589.494 455.166 C 590.828 457.182, 592.387 459.121, 592.959 459.475 C 593.532 459.829, 594 460.576, 594 461.136 C 594 461.696, 591.577 460.085, 588.616 457.555 C 584.252 453.826, 583.115 453.259, 582.616 454.559 C 581.131 458.429, 583.086 461.993, 594.226 475.725 C 600.313 483.227, 604.967 490.591, 604.988 492.750 C 605.011 495.130, 602.787 493.975, 596.657 488.424 C 589.017 481.504, 579.211 475.389, 577.883 476.717 C 576.682 477.918, 578.403 482.720, 581.045 485.542 C 582.409 486.998, 582.832 488.574, 582.521 491.035 C 582.199 493.577, 582.869 495.878, 585.061 499.761 L 588.037 505.035 585.519 505.993 C 582.683 507.071, 582.262 509.142, 584.500 511 C 585.325 511.685, 586 512.797, 586 513.472 C 586 515.963, 580.209 523.214, 575.986 526.009 C 571.428 529.027, 568.092 528.964, 571.838 525.930 C 573.285 524.758, 573.993 523.075, 573.978 520.840 L 573.956 517.500 572 520 C 570.924 521.375, 570.034 523.239, 570.022 524.143 C 570.010 525.047, 569.296 526.056, 568.435 526.387 C 567.574 526.717, 564.818 531.378, 562.311 536.744 C 559.284 543.222, 556.016 548.375, 552.586 552.080 C 549.744 555.150, 545.653 560.325, 543.493 563.580 C 541.333 566.836, 536.807 572.666, 533.434 576.535 C 530.062 580.404, 525.270 586.704, 522.786 590.535 C 520.301 594.366, 514.766 602.900, 510.485 609.500 C 503.698 619.964, 495.858 632.902, 488.090 646.458 C 486.843 648.635, 483.139 656.960, 479.859 664.958 C 468.076 693.693, 458.716 714.439, 457.078 715.452 C 456.572 715.765, 454.705 720.081, 452.930 725.043 C 451.155 730.005, 449.302 734.314, 448.811 734.617 C 447.575 735.380, 448.767 730.880, 452.147 722.023 C 453.716 717.910, 455 713.858, 455 713.018 C 455 710.777, 464.192 684.787, 468.269 675.500 C 472.108 666.757, 477.812 654.731, 493.562 622.175 C 499.237 610.446, 503.633 600.208, 503.333 599.425 C 501.264 594.034, 494.395 602.897, 480.799 628.500 C 476.710 636.200, 470.210 647.675, 466.353 654 C 462.497 660.325, 454.706 674.275, 449.039 685 C 436.652 708.443, 432.862 715, 431.701 715 C 430.575 715, 431.633 708.169, 433.947 700.500 C 434.943 697.200, 436.329 691.350, 437.029 687.500 C 437.728 683.650, 439.728 676, 441.474 670.500 C 443.220 665, 445.195 658.587, 445.864 656.250 C 446.533 653.913, 447.475 652, 447.957 652 C 448.440 652, 449.623 649.862, 450.587 647.250 C 451.550 644.638, 452.938 641.790, 453.669 640.921 C 455.335 638.945, 455.361 637.995, 453.750 638.018 C 452.046 638.043, 446 645.465, 446 647.532 C 446 649.843, 443.415 655.186, 438.032 664 C 433.349 671.667, 429.735 679.579, 423.644 695.500 C 421.750 700.450, 417.862 710.350, 415.003 717.500 C 406.502 738.768, 395.125 781.610, 388.395 817.701 C 386.444 828.163, 385.843 829.538, 383.601 828.677 C 382.361 828.201, 382 826.602, 382 821.583 C 382 804.810, 388.571 773.132, 399.959 735 C 407.041 711.284, 405.802 714.863, 415.421 690.360 C 419.553 679.834, 424.919 665.434, 427.344 658.360 C 429.770 651.287, 432.888 642.800, 434.274 639.500 C 435.660 636.200, 437.510 631.025, 438.385 628 L 439.977 622.500 438.002 625 C 435.489 628.180, 423.821 651.750, 412.012 677.500 C 402.511 698.219, 397.150 708.483, 396.283 707.616 C 396.006 707.340, 397.158 702.700, 398.842 697.307 C 400.526 691.913, 403.314 682.805, 405.038 677.066 C 406.762 671.327, 409.876 662.777, 411.959 658.066 C 414.041 653.355, 418.468 643.387, 421.796 635.914 C 425.125 628.442, 428.145 620.742, 428.509 618.803 C 429.088 615.717, 428.891 615.205, 426.932 614.692 C 424.704 614.110, 419.691 616.073, 418.504 617.993 C 418.162 618.547, 417.397 619, 416.805 619 C 414.836 619, 416.832 610.303, 419.973 605.199 C 421.638 602.493, 423 599.834, 423 599.289 C 423 598.745, 424.434 596.320, 426.188 593.900 C 431.417 586.681, 440 572.172, 440 570.551 C 440 568.152, 431.046 574.969, 430.302 577.934 C 429.957 579.308, 428.851 581.317, 427.845 582.397 C 426.838 583.478, 424.608 587.093, 422.889 590.431 C 421.170 593.769, 419.225 597.175, 418.567 598 C 416.549 600.530, 407.457 618.940, 403.010 629.500 C 396.694 644.500, 376.598 683.832, 379.507 675.500 C 386.915 654.285, 397.718 629.449, 407.548 611.033 C 409.447 607.477, 411 603.214, 411 601.561 C 411 598.582, 410.983 598.573, 409.094 600.528 C 402.578 607.271, 383.836 648.187, 370.151 685.545 C 368.548 689.920, 365.669 697.775, 363.753 703 C 360.730 711.245, 359.403 716.014, 357.454 725.631 C 357.216 726.802, 356.197 727.977, 355.188 728.241 C 353.739 728.620, 352.669 731.633, 350.086 742.610 C 348.288 750.250, 345.687 760.775, 344.305 766 C 342.923 771.225, 340.478 780.450, 338.872 786.500 C 337.266 792.550, 334.859 803.350, 333.524 810.500 C 331.067 823.664, 328.549 835.700, 327.421 839.681 C 327.081 840.880, 326.172 842.104, 325.401 842.399 C 323.757 843.030, 323.715 842.648, 324.914 838 C 326.599 831.470, 327.206 826.448, 326.184 827.500 C 323.906 829.845, 318.685 856.208, 317.018 873.783 C 315.689 887.798, 315.581 886.958, 318.863 888.102 L 321.726 889.100 322.321 926.800 C 322.649 947.535, 323.379 968.100, 323.945 972.500 C 324.510 976.900, 325.416 985.900, 325.958 992.500 C 327.496 1011.257, 335.408 1054.496, 339.340 1065.636 C 342.317 1074.074, 347.215 1093.119, 349.422 1104.842 C 350.286 1109.430, 352.345 1117.218, 353.997 1122.149 C 360.034 1140.168, 356.996 1138.993, 348.438 1119.999 C 334.654 1089.405, 322.523 1051.429, 318.539 1026.401 C 316.288 1012.266, 315.007 1004.966, 311.975 989 C 311.505 986.525, 310.566 981.350, 309.890 977.500 C 309.213 973.650, 308.286 970.073, 307.829 969.550 C 306.541 968.074, 306.838 972.176, 308.555 979.583 C 310.460 987.794, 309.085 990.407, 306.466 983.551 C 302.648 973.553, 301.419 982.403, 304.669 996.500 C 305.556 1000.350, 306.397 1004.707, 306.537 1006.182 C 306.677 1007.657, 307.728 1011.932, 308.872 1015.682 C 310.016 1019.432, 312.063 1028.581, 313.420 1036.013 C 319.514 1069.381, 332.757 1116.778, 338.062 1124.206 C 340.306 1127.348, 342.858 1133.535, 347.671 1147.500 C 351.233 1157.837, 361.853 1183.468, 365.488 1190.500 L 367.555 1194.500 390.528 1194.242 C 424.086 1193.865, 531.815 1189.518, 532.833 1188.500 C 533.405 1187.928, 517.374 1155.345, 509.074 1140.211 C 503.550 1130.138, 497.696 1116.971, 498.420 1116.247 C 499.515 1115.152, 502.052 1119.336, 510.095 1135.500 C 519.356 1154.113, 522.736 1160.488, 525.500 1164.556 C 526.600 1166.175, 529.790 1172, 532.588 1177.500 C 537.527 1187.207, 537.783 1187.509, 541.338 1187.810 C 543.352 1187.981, 545 1187.936, 545 1187.710 C 545 1187.485, 542.729 1183.121, 539.954 1178.014 C 534.761 1168.456, 531.357 1163.176, 524.792 1154.500 C 521.311 1149.900, 519.918 1146, 521.755 1146 C 522.170 1146, 524.082 1148.053, 526.005 1150.563 C 527.927 1153.072, 532.263 1158.520, 535.639 1162.669 C 539.016 1166.817, 543.516 1173.390, 545.639 1177.275 C 547.763 1181.160, 550.095 1184.937, 550.821 1185.669 C 552.231 1187.089, 574.684 1187.613, 580.892 1186.372 L 584.034 1185.743 579.720 1181.122 C 568.900 1169.527, 560.581 1156.421, 541.047 1120.195 C 531.448 1102.393, 526.739 1091.994, 523.070 1080.500 C 519.584 1069.576, 515.811 1060.763, 513.299 1057.673 C 510.819 1054.624, 510.383 1053, 512.045 1053 C 513.443 1053, 512.538 1047.891, 508.924 1035.376 C 507.316 1029.808, 506 1024.351, 506 1023.249 C 506 1022.147, 505.325 1020.685, 504.500 1020 C 503.675 1019.315, 503 1017.958, 503 1016.983 C 503 1016.008, 502.034 1012.126, 500.854 1008.355 C 499.673 1004.585, 497.645 996.550, 496.346 990.500 C 495.047 984.450, 493.541 977.534, 493 975.131 C 492.459 972.728, 491.856 965.868, 491.660 959.885 C 491.366 950.892, 491.536 949.200, 492.641 950.117 C 493.376 950.727, 493.743 951.606, 493.457 952.070 C 492.666 953.349, 496.609 967.864, 499.568 974.570 C 502.954 982.243, 503.870 983.353, 505.614 981.905 C 506.742 980.969, 506.720 980.438, 505.482 978.670 C 504.667 977.507, 504.041 975.418, 504.090 974.027 C 504.168 971.836, 504.326 971.966, 505.276 975 C 506.199 977.947, 506.432 978.151, 506.751 976.288 C 506.959 975.072, 506.003 972.147, 504.626 969.788 C 502.500 966.147, 502.064 963.956, 501.738 955.260 C 501.526 949.628, 501.049 944.715, 500.676 944.343 C 500.304 943.971, 500 942.266, 500 940.555 C 500 938.843, 499.107 931.155, 498.016 923.471 C 495.713 907.258, 495.491 890.469, 497.447 880.500 C 498.783 873.693, 498.205 870.388, 496.055 872.550 C 494.471 874.144, 490.736 891.984, 490.100 901 C 489.559 908.666, 489.292 909.530, 487.385 909.802 C 485.714 910.040, 485.138 909.438, 484.635 906.927 C 483.121 899.356, 484.744 856.484, 487.093 842 C 487.970 836.587, 490.038 825.623, 492.561 813 C 492.902 811.295, 492.773 810.931, 492.155 811.857 C 490.706 814.029, 489.729 811.375, 491.061 808.886 C 491.902 807.315, 492.425 807.070, 492.991 807.985 C 493.766 809.240, 498 799.512, 498 796.474 C 498 793.128, 504.462 775.277, 511.574 758.978 C 515.769 749.365, 520.820 737, 522.798 731.500 C 527.598 718.157, 556.121 661.726, 564.041 649.904 C 567.506 644.732, 572.688 637.311, 575.557 633.412 C 578.427 629.514, 583.604 622.089, 587.063 616.912 C 590.522 611.736, 594.609 606.038, 596.145 604.251 C 597.681 602.464, 600.537 598.501, 602.492 595.445 C 604.447 592.389, 609.399 586.492, 613.497 582.341 C 617.595 578.190, 622.197 572.816, 623.724 570.398 C 625.251 567.981, 627.040 566.003, 627.699 566.002 C 628.359 566.001, 630.059 567.521, 631.477 569.381 C 632.895 571.240, 635.280 573.011, 636.778 573.318 C 638.275 573.624, 642.769 575.973, 646.765 578.538 C 650.830 581.148, 654.684 582.952, 655.515 582.633 C 657.742 581.778, 657.308 578.519, 654.527 575.214 C 653.167 573.598, 650.560 569.176, 648.735 565.388 C 646.909 561.599, 644.691 557.375, 643.806 556 C 641.688 552.711, 640.492 547, 641.921 547 C 642.514 547, 643 547.365, 643 547.811 C 643 548.258, 643.923 549.614, 645.051 550.824 C 646.179 552.035, 646.859 553.419, 646.562 553.899 C 646.265 554.379, 651.080 559.668, 657.261 565.652 C 670.483 578.451, 682.522 591.223, 685.922 596.056 C 688.414 599.600, 702.962 613.372, 703.570 612.763 C 703.757 612.576, 702.819 610.142, 701.485 607.355 C 700.151 604.568, 698.594 600.985, 698.024 599.393 C 697.054 596.685, 697.085 596.628, 698.497 598.500 C 704.886 606.969, 709.396 612.428, 715.006 618.480 C 718.584 622.341, 722.219 626.595, 723.083 627.933 C 723.971 629.307, 724.930 629.923, 725.285 629.347 C 725.970 628.239, 720.742 616.485, 718.422 613.917 C 717.021 612.366, 709.945 600.945, 696.168 578 C 692.371 571.675, 686.441 561.100, 682.991 554.500 C 679.541 547.900, 675.854 541.267, 674.798 539.760 C 673.741 538.252, 672.625 535.327, 672.316 533.260 C 672.007 531.192, 670.460 526.899, 668.877 523.720 C 665.699 517.335, 665.600 517, 666.905 517 C 670.157 517, 705.798 553.695, 709.346 560.696 C 711.703 565.347, 721.834 577.627, 724.729 579.342 C 727.205 580.808, 727.449 579.070, 725.163 576.234 C 723.952 574.730, 722.116 571.700, 721.083 569.500 C 720.051 567.300, 717.585 563.251, 715.603 560.503 C 713.504 557.593, 712 554.332, 712 552.694 C 712 549.159, 712.816 549.665, 718.893 556.967 C 722.357 561.130, 724.123 562.542, 725.103 561.936 C 726.208 561.253, 725.846 559.818, 723.237 554.526 C 721.457 550.916, 720 547.508, 720 546.953 C 720 546.398, 718.507 542.920, 716.682 539.222 C 713.062 531.889, 706.435 512.232, 707.293 511.374 C 708.194 510.473, 713.302 514.091, 717.220 518.404 C 719.406 520.811, 720.949 521.882, 720.961 521 C 720.972 520.175, 718.953 513.021, 716.473 505.102 C 713.993 497.182, 712.084 490.592, 712.232 490.457 C 712.379 490.321, 715.875 494.697, 720 500.182 C 724.125 505.667, 728.073 510.634, 728.774 511.220 C 731.198 513.247, 731.458 510.850, 729.234 506.985 C 726.201 501.715, 726.425 501.080, 730.090 504.563 C 731.789 506.178, 734.461 510.313, 736.027 513.750 C 737.593 517.188, 739.353 520, 739.937 520 C 740.522 520, 741 519.767, 741 519.482 C 741 517.876, 736.680 503.246, 734.472 497.372 C 730.594 487.059, 730.028 485, 731.070 485 C 735.020 485, 744.272 500.912, 750.035 517.616 C 752.656 525.213, 757.370 534.978, 758.421 534.990 C 758.928 534.995, 760.147 534.272, 761.131 533.381 C 762.815 531.857, 763.063 532.087, 765.361 537.282 C 766.704 540.318, 768.132 543.859, 768.534 545.151 C 768.937 546.443, 771.857 552.675, 775.022 559 C 793.474 595.865, 797.479 604.079, 804.495 619.454 C 808.751 628.778, 812.825 638.088, 813.550 640.141 C 814.275 642.195, 817.597 648.605, 820.934 654.385 C 824.270 660.165, 827 665.290, 827 665.773 C 827 666.256, 828.125 667.708, 829.500 669 C 830.875 670.292, 832 671.005, 832 670.584 C 832 669.278, 819.906 632.136, 818.370 628.727 C 817.571 626.952, 816.190 624.150, 815.303 622.500 C 806.615 606.353, 801.876 595, 803.824 595 C 804.352 595, 805.058 596.094, 805.393 597.430 C 805.729 598.767, 806.580 600.454, 807.284 601.180 C 807.989 601.906, 809.594 603.962, 810.851 605.750 C 814.186 610.494, 815.486 609.730, 812.399 604.840 C 808.556 598.752, 804.037 588.270, 802.831 582.646 C 802.149 579.466, 801.496 578.198, 800.974 579.042 C 800.414 579.948, 799.690 579.193, 798.585 576.549 C 796.754 572.166, 796.568 570, 798.025 570 C 798.589 570, 799.322 571.359, 799.654 573.021 C 800.239 575.946, 802 578.217, 802 576.046 C 802 575.457, 801.062 571.718, 799.915 567.737 C 798.768 563.757, 797.400 558.700, 796.874 556.500 C 796.348 554.300, 794.640 548.900, 793.078 544.500 C 788.909 532.758, 785.976 523.638, 786.004 522.500 C 786.052 520.526, 794.117 536.395, 799.636 549.320 C 806.497 565.391, 815.400 583.365, 818.663 587.734 C 819.991 589.513, 822.219 594.013, 823.614 597.734 C 826.786 606.197, 834.093 620.061, 835.064 619.460 C 835.866 618.965, 834.894 614.161, 833.052 609.510 C 832.400 607.866, 832.090 605.166, 832.361 603.510 C 832.633 601.855, 832.516 599.633, 832.102 598.573 C 831.359 596.671, 831.340 596.671, 830.575 598.573 C 829.851 600.372, 829.738 600.339, 828.869 598.078 C 828.238 596.438, 828.299 595.433, 829.058 594.964 C 830.430 594.116, 829.361 583.469, 827.606 580.500 C 826.905 579.316, 826.487 575.033, 826.580 570 C 826.666 565.325, 826.360 561.021, 825.900 560.436 C 825.440 559.850, 824.428 556.700, 823.651 553.436 C 822.874 550.171, 820.896 544.125, 819.256 540 C 814.573 528.226, 808.354 509.436, 805.520 498.500 C 804.095 493, 801.396 484, 799.524 478.500 C 796.293 469.008, 794.967 464.312, 793.597 457.500 L 792.994 454.500 794.396 457 C 795.168 458.375, 797.392 464, 799.338 469.500 C 801.285 475, 804.056 482.650, 805.498 486.500 C 810.662 500.295, 813.152 507.609, 815.030 514.500 C 817.218 522.533, 822.436 538.310, 824.124 542 C 824.753 543.375, 825.603 545.400, 826.014 546.500 C 826.424 547.600, 827.234 549.625, 827.812 551 L 828.865 553.500 828.908 551 C 828.933 549.625, 828.478 546.700, 827.899 544.500 C 827.319 542.300, 826.426 537.800, 825.913 534.500 C 825.361 530.953, 824.299 527.994, 823.315 527.262 C 821.910 526.217, 821.845 525.658, 822.897 523.693 C 823.936 521.751, 823.816 520.377, 822.171 515.432 C 821.086 512.169, 819.415 505.900, 818.457 501.500 C 817.500 497.100, 815.691 490.053, 814.438 485.841 C 813.185 481.628, 810.757 470.828, 809.042 461.841 C 807.327 452.853, 805.451 444.375, 804.873 443 C 803.952 440.810, 804.251 440.934, 807.278 444 C 809.179 445.925, 811.305 449.300, 812.003 451.500 C 814.756 460.184, 818.901 466.258, 822.231 466.488 C 823.951 466.607, 824.819 467.636, 825.820 470.742 C 826.546 472.996, 827.847 475.111, 828.711 475.442 C 830.066 475.962, 830.207 475.223, 829.740 470.073 C 829.376 466.050, 829.574 463.946, 830.349 463.626 C 831.102 463.316, 831.154 462.867, 830.500 462.326 C 828.904 461.007, 825.619 454.048, 826.281 453.386 C 826.612 453.055, 827.573 454.436, 828.417 456.455 C 829.260 458.474, 831.590 461.856, 833.594 463.971 C 835.599 466.086, 838.074 469.683, 839.095 471.964 C 841.097 476.436, 846.649 494.669, 848.241 502 C 850.830 513.923, 856.270 534.780, 857.493 537.477 C 858.248 539.140, 859.591 542.715, 860.479 545.422 C 863.681 555.186, 865.438 555.313, 862.482 545.567 C 860.786 539.977, 861.449 522.068, 863.400 520.765 C 864.065 520.321, 863.758 520.025, 862.625 520.015 C 861.072 520.003, 860.854 519.479, 861.358 516.962 C 861.793 514.787, 861.546 513.763, 860.488 513.357 C 859.676 513.045, 859.318 512.294, 859.693 511.688 C 860.068 511.081, 860.492 509.487, 860.635 508.145 C 861.132 503.479, 862.698 503.805, 863.279 508.696 C 863.593 511.338, 864.538 515.525, 865.379 518 C 866.220 520.475, 867.639 527.675, 868.532 534 C 869.425 540.325, 870.971 548.650, 871.968 552.500 C 872.964 556.350, 874.925 564.675, 876.325 571 C 882.928 600.831, 888.155 621.955, 890.058 626.500 C 890.519 627.600, 891.389 631.028, 891.992 634.118 C 893.265 640.650, 896.407 646.114, 895.373 640 C 895.047 638.075, 893.930 633.050, 892.890 628.833 C 891.851 624.617, 891 618.231, 891 614.642 C 891 611.054, 890.538 607.833, 889.973 607.484 C 889.409 607.135, 889.046 606.321, 889.167 605.675 C 889.289 605.029, 889.055 602.004, 888.647 598.953 C 887.861 593.061, 888.460 590, 890.399 590 C 891.156 590, 892.410 595.333, 893.868 604.750 C 895.124 612.862, 896.974 623.325, 897.979 628 C 898.984 632.675, 900.322 639.425, 900.952 643 C 907.300 679.025, 909.349 688.749, 910.922 690.322 C 912.442 691.842, 912.321 683.976, 910.565 667.207 C 907.573 638.634, 907.557 637.929, 909.908 637.314 C 912.135 636.731, 912.641 634.066, 911.079 631.147 C 910.572 630.200, 909.195 622.867, 908.018 614.851 C 906.224 602.630, 905.818 594.479, 905.506 564.388 C 905.301 544.649, 904.706 524.450, 904.184 519.500 C 901.833 497.223, 905.010 436.610, 908.353 439.953 C 908.908 440.508, 909.728 446.933, 910.175 454.231 C 910.622 461.529, 911.446 468.400, 912.006 469.500 C 912.566 470.600, 913.654 478.198, 914.424 486.385 C 915.597 498.859, 916.185 501.758, 918.054 504.287 C 919.281 505.947, 920.805 509.343, 921.441 511.835 C 922.767 517.034, 925 518.640, 925 514.394 C 925 512.868, 924.462 509.017, 923.805 505.834 C 922.880 501.356, 922.879 498.968, 923.800 495.274 C 924.454 492.648, 925.210 485.400, 925.480 479.168 C 925.946 468.398, 927.291 462.857, 929.500 462.611 C 930.050 462.550, 930.638 464.975, 930.807 468 C 931.233 475.624, 932.607 476.307, 933.473 469.325 C 933.870 466.121, 934.886 461.700, 935.731 459.500 C 936.576 457.300, 937.544 450.657, 937.883 444.738 C 938.237 438.571, 938.927 434.002, 939.500 434.038 C 940.050 434.072, 940.401 435.652, 940.280 437.550 C 940.020 441.618, 942.212 442.292, 944.179 438.750 C 945.422 436.513, 945.636 435.914, 945.875 434 C 945.944 433.450, 946.645 433, 947.433 433 C 948.221 433, 949.072 432.212, 949.326 431.250 C 949.579 430.287, 950.328 427.250, 950.991 424.500 C 951.653 421.750, 952.387 418.873, 952.621 418.107 C 953.720 414.513, 954.419 419.408, 955.071 435.264 C 955.460 444.744, 956.358 462.022, 957.066 473.660 L 958.352 494.820 961.224 495.395 C 963.962 495.942, 964.060 496.145, 963.308 499.735 C 962.218 504.936, 962.611 560.533, 963.853 576.901 C 964.412 584.271, 965.325 590.583, 965.882 590.927 C 966.523 591.323, 966.552 592.094, 965.963 593.026 C 965.450 593.837, 965.031 597.875, 965.031 602 C 965.031 607.207, 965.327 609.041, 966 608 C 966.755 606.831, 966.973 607.107, 966.985 609.250 C 966.993 610.763, 966.663 612.002, 966.250 612.005 C 965.837 612.008, 965.492 615.383, 965.481 619.505 C 965.447 633.616, 967.322 626.966, 968.662 608.231 C 968.987 603.683, 969.668 599.705, 970.175 599.392 C 970.708 599.062, 970.603 598.227, 969.926 597.411 C 969.076 596.387, 969.054 595.640, 969.846 594.685 C 970.576 593.806, 970.748 589.327, 970.367 581.191 C 969.776 568.597, 971.176 544.577, 973.468 528 C 974.190 522.775, 974.579 518.163, 974.331 517.750 C 974.084 517.337, 974.292 517, 974.794 517 C 976.339 517, 977 530.958, 976.994 563.401 C 976.989 588.371, 976.707 595.039, 975.562 597.233 C 973.999 600.228, 975.039 601.863, 977.002 599.498 C 978.860 597.259, 981.058 576.969, 980.847 564 C 980.744 557.675, 980.891 551.825, 981.173 551 C 981.456 550.175, 982.052 548.181, 982.497 546.569 C 983.278 543.745, 983.358 543.836, 984.703 549.069 C 985.471 552.056, 985.978 555.938, 985.829 557.696 C 985.681 559.454, 985.847 561.180, 986.199 561.532 C 988.277 563.610, 989.771 552.587, 992.033 518.500 C 992.617 509.700, 993.486 500.025, 993.964 497 C 996.008 484.083, 998.127 474.288, 999.514 471.349 C 1000.331 469.616, 1001.008 467.141, 1001.017 465.849 C 1001.027 464.557, 1001.724 460.350, 1002.566 456.500 C 1003.408 452.650, 1004.546 446.800, 1005.094 443.500 C 1006.129 437.273, 1007.995 432, 1009.162 432 C 1009.533 432, 1010.602 431.706, 1011.537 431.347 C 1013.096 430.749, 1013.207 431.807, 1012.869 444.097 C 1012.430 460.028, 1013.557 461.386, 1018.585 450.983 C 1021.982 443.952, 1024.686 440.874, 1025.833 442.730 C 1027.030 444.667, 1027.190 462.518, 1026.097 472.168 C 1025.516 477.301, 1024.590 488.250, 1024.039 496.500 C 1023.489 504.750, 1022.735 513.698, 1022.365 516.385 C 1021.820 520.336, 1021.960 521.181, 1023.096 520.805 C 1024.012 520.502, 1024.794 517.848, 1025.345 513.170 C 1025.809 509.227, 1026.597 506, 1027.095 506 C 1027.593 506, 1028.037 506.788, 1028.081 507.750 C 1028.481 516.339, 1029.020 522.609, 1029.455 523.742 C 1029.742 524.491, 1029.597 524.869, 1029.132 524.582 C 1028.462 524.167, 1026 542.472, 1026 547.868 C 1026 550.854, 1027.829 547.625, 1028.438 543.564 C 1028.806 541.110, 1030.160 536.042, 1031.448 532.301 C 1037.977 513.331, 1041.903 500.960, 1042.969 496 C 1044.431 489.197, 1045.988 485, 1047.050 485 C 1048.459 485, 1051 488.080, 1051 489.788 C 1051 491.721, 1056.879 482.959, 1061.062 474.793 C 1062.670 471.655, 1065.149 465.580, 1066.572 461.293 C 1067.995 457.007, 1070.514 450.800, 1072.169 447.500 C 1073.825 444.200, 1075.831 439.363, 1076.628 436.750 C 1078.747 429.805, 1081 430.892, 1081 438.859 C 1081 440.892, 1081.715 443.575, 1082.588 444.822 C 1084.041 446.897, 1084.028 448.146, 1082.429 459.586 C 1081.134 468.849, 1080.974 472.374, 1081.808 473.208 C 1083.129 474.529, 1083.129 474.528, 1085.535 464.211 C 1088.407 451.892, 1095.217 441.718, 1099.492 443.359 C 1101.135 443.989, 1101.514 447.032, 1100.140 448.550 C 1098.773 450.059, 1096.386 458.157, 1091.605 477.500 C 1089.158 487.400, 1085.791 500.740, 1084.122 507.145 C 1081.454 517.390, 1081.127 520.131, 1081.403 529.954 C 1081.791 543.728, 1083.537 546.751, 1084.214 534.821 C 1084.575 528.477, 1085.681 523.652, 1088.871 514.514 C 1091.172 507.922, 1094.121 500.947, 1095.423 499.014 C 1096.725 497.081, 1098.495 494.150, 1099.355 492.500 C 1101.795 487.822, 1101.275 491.834, 1098.578 498.500 C 1094.526 508.512, 1088.321 530.278, 1088.458 534 C 1088.584 537.450, 1090.732 543, 1091.942 543 C 1092.551 543, 1104 519.830, 1104 518.597 C 1104 518.251, 1107.543 510.621, 1111.873 501.640 C 1119.411 486.007, 1122.258 482.181, 1124.116 485.187 C 1125.084 486.754, 1124.913 486.989, 1129.375 478 C 1137.524 461.587, 1143.529 451.500, 1145.356 451.159 C 1148.729 450.529, 1149.275 452.475, 1147.171 457.630 C 1146.078 460.308, 1143.820 465.875, 1142.154 470 C 1140.489 474.125, 1137.752 480.517, 1136.074 484.205 C 1131.976 493.206, 1125.036 513.642, 1120.128 531.162 C 1117.919 539.048, 1115.019 547.975, 1113.684 551 C 1112.349 554.025, 1109.582 561.900, 1107.535 568.500 C 1105.488 575.100, 1103.209 581.850, 1102.469 583.500 C 1101.730 585.150, 1100.378 588.300, 1099.466 590.500 C 1090.905 611.144, 1088.082 618.415, 1088.476 618.809 C 1090.875 621.209, 1099.580 606.178, 1112.844 576.729 C 1114.521 573.005, 1116.791 568.698, 1117.889 567.156 C 1118.986 565.615, 1120.973 561.462, 1122.304 557.927 C 1125.743 548.792, 1130.755 539.072, 1138.118 527.259 C 1141.628 521.627, 1146.695 513.181, 1149.377 508.491 C 1152.236 503.492, 1155.425 499.272, 1157.083 498.292 C 1158.640 497.372, 1161.395 494.638, 1163.206 492.216 C 1169.985 483.150, 1172.931 484.220, 1168.788 494.243 C 1167.138 498.234, 1164.312 505.100, 1162.508 509.500 C 1157.616 521.427, 1153.858 529.427, 1142.775 551.500 C 1137.252 562.500, 1128.573 581.400, 1123.489 593.500 C 1109.975 625.662, 1101.791 644.369, 1095.587 657.275 C 1089.444 670.053, 1078.730 696.063, 1079.352 696.685 C 1079.574 696.907, 1082.431 691.770, 1085.702 685.270 C 1090.977 674.785, 1097.097 663.971, 1102.200 656.116 C 1106.014 650.245, 1111.298 640.089, 1113.966 633.500 C 1119.168 620.656, 1123.632 611.566, 1128.331 604.250 C 1130.892 600.262, 1133.267 597, 1133.608 597 C 1133.950 597, 1133.578 598.013, 1132.781 599.250 C 1125.950 609.855, 1119.104 625.404, 1113.952 642.015 C 1112.164 647.782, 1109.431 655.650, 1107.879 659.500 C 1105.496 665.412, 1105.374 666.112, 1107.095 664 C 1110.186 660.207, 1120.839 643.722, 1127.451 632.500 C 1130.691 627, 1135.222 619.350, 1137.519 615.500 C 1139.816 611.650, 1143.058 606.025, 1144.723 603 C 1158.390 578.166, 1170.371 558.063, 1176.012 550.500 C 1179.705 545.550, 1183.916 539.429, 1185.372 536.897 C 1186.827 534.365, 1188.964 531.440, 1190.120 530.397 C 1192.194 528.526, 1192.245 528.533, 1193.861 530.902 C 1196.225 534.365, 1202.192 540.498, 1204.347 541.677 C 1206.086 542.629, 1206.001 543.032, 1202.901 548.594 C 1201.089 551.842, 1196.833 558.775, 1193.442 564 C 1190.050 569.225, 1185.792 576.200, 1183.978 579.500 C 1182.164 582.800, 1178.468 588.846, 1175.765 592.936 C 1169.821 601.931, 1166.878 607.545, 1167.685 608.352 C 1168.015 608.682, 1167.810 609.525, 1167.229 610.226 C 1165.420 612.408, 1158.929 624.262, 1159.326 624.659 C 1159.533 624.866, 1161.457 622.580, 1163.601 619.578 C 1165.745 616.577, 1170.401 610.156, 1173.947 605.310 C 1177.493 600.465, 1184.806 590.007, 1190.197 582.071 C 1195.589 574.135, 1200 567.920, 1200 568.261 C 1200 569.073, 1192.797 582.821, 1185.466 596 C 1182.254 601.775, 1177.183 611.444, 1174.198 617.487 C 1171.213 623.530, 1167.022 630.916, 1164.885 633.900 C 1162.748 636.884, 1161 639.794, 1161 640.366 C 1161 643.220, 1173.178 629.004, 1194 601.844 C 1203.066 590.018, 1231.845 560.500, 1234.309 560.500 C 1235.826 560.500, 1236.838 565.037, 1235.903 567.639 C 1235.272 569.393, 1235.461 569.692, 1236.954 569.302 C 1237.955 569.040, 1239.039 569.255, 1239.363 569.779 C 1239.936 570.705, 1234.946 580.981, 1232.459 584 C 1230.720 586.109, 1216.392 613.022, 1215.556 615.750 C 1215.176 616.987, 1215.233 618, 1215.683 618 C 1216.132 618, 1220.775 613.937, 1226 608.972 C 1231.225 604.007, 1236.496 599.687, 1237.714 599.373 C 1238.932 599.058, 1240.195 597.960, 1240.521 596.932 C 1240.848 595.905, 1242.840 594.094, 1244.948 592.909 C 1247.057 591.724, 1250.428 588.785, 1252.441 586.377 C 1256.055 582.053, 1258.271 581.011, 1259.527 583.044 C 1260.364 584.398, 1257.755 588.384, 1252.382 593.959 C 1245.887 600.696, 1248.050 600.118, 1255.535 593.116 L 1262.124 586.952 1265.062 589.044 C 1266.678 590.195, 1268 591.404, 1268 591.731 C 1268 592.057, 1266.586 594.528, 1264.858 597.221 C 1260.799 603.546, 1261.642 604.412, 1271.904 604.462 L 1279.785 604.500 1286.947 611 C 1296.335 619.520, 1299.527 623.660, 1298.068 625.418 C 1296.928 626.791, 1297.596 630, 1299.022 630 C 1300.619 630, 1306.745 639.575, 1307.374 643.053 C 1307.772 645.250, 1309.950 648.876, 1313.084 652.553 C 1315.870 655.824, 1318.858 659.850, 1319.723 661.500 C 1320.589 663.150, 1322.278 665.850, 1323.477 667.500 C 1324.676 669.150, 1325.477 671.287, 1325.255 672.250 C 1325.034 673.212, 1325.493 675.237, 1326.275 676.750 C 1337.163 697.819, 1340.689 704.173, 1343.521 707.834 C 1345.471 710.353, 1347.943 715.586, 1349.428 720.334 C 1350.832 724.825, 1353.769 731.399, 1355.954 734.942 C 1358.721 739.429, 1359.626 741.746, 1358.936 742.577 C 1357.928 743.792, 1358.522 747.326, 1361.726 759.151 C 1362.703 762.757, 1363.018 766.396, 1362.596 769.208 C 1361.962 773.434, 1362.139 773.847, 1366.890 779.277 C 1370.915 783.876, 1372.053 786.026, 1372.950 790.720 C 1374.171 797.109, 1376.791 808.306, 1379.898 820.421 C 1383.312 833.727, 1387.609 866.857, 1388.375 885.771 C 1388.748 894.959, 1388.598 896.145, 1386.956 897.023 C 1385.947 897.563, 1384.912 897.667, 1384.657 897.253 C 1383.535 895.435, 1382 884.030, 1382 877.516 C 1382 869.986, 1381.037 867.916, 1377.916 868.732 C 1376.163 869.191, 1376 870.249, 1376 881.156 C 1376 891.277, 1376.316 893.699, 1378.090 897.175 C 1379.292 899.532, 1379.778 901.532, 1379.235 901.886 C 1378.053 902.655, 1377.828 909, 1378.984 909 C 1379.451 909, 1380.019 908.442, 1380.247 907.759 C 1380.544 906.867, 1381.150 907.007, 1382.402 908.259 C 1385.208 911.065, 1387.362 910.531, 1386.467 907.250 C 1385.578 903.987, 1385.698 900.274, 1386.746 898.661 C 1387.161 898.022, 1387.800 900.200, 1388.168 903.500 C 1389.092 911.812, 1388.206 966.272, 1387.036 973 C 1386.510 976.025, 1385.593 983.675, 1384.999 990 C 1382.060 1021.275, 1381.337 1025.520, 1378.461 1028.396 C 1377.656 1029.201, 1376.547 1032.029, 1375.996 1034.680 C 1375.445 1037.331, 1373.623 1046.250, 1371.946 1054.500 C 1370.269 1062.750, 1368.064 1071.525, 1367.046 1074 C 1364.545 1080.084, 1362.199 1089.408, 1361.613 1095.596 C 1361.348 1098.399, 1359.145 1106.636, 1356.719 1113.900 L 1352.307 1127.108 1369.403 1126.488 C 1378.807 1126.147, 1394.375 1125.233, 1404 1124.456 C 1419.895 1123.172, 1475.440 1121.247, 1512 1120.712 L 1526.500 1120.500 1526.816 1118 C 1526.989 1116.625, 1528.452 1110.775, 1530.065 1105 C 1535.907 1084.092, 1545.943 1032.583, 1545.980 1023.322 C 1545.991 1020.475, 1546.454 1014.850, 1547.008 1010.822 C 1549.487 992.811, 1551.306 961.887, 1551.705 931 C 1552.363 879.983, 1549.936 848.755, 1542.534 813 C 1538.612 794.056, 1536.004 774.453, 1535.992 763.837 C 1535.987 759.599, 1534.720 750.411, 1532.991 742.084 C 1531.346 734.155, 1530.178 727.489, 1530.397 727.270 C 1530.615 727.051, 1531.779 730.164, 1532.983 734.186 C 1535.423 742.342, 1539.816 755.640, 1542.831 764 C 1544.696 769.172, 1548.272 784.967, 1549.536 793.615 C 1549.848 795.752, 1552.078 807.400, 1554.492 819.500 C 1556.905 831.600, 1559.595 845.550, 1560.468 850.500 C 1563.071 865.258, 1562.988 865, 1565.125 865 C 1566.784 865, 1567.009 864.493, 1566.565 861.750 C 1566.276 859.962, 1565.328 851.300, 1564.460 842.500 C 1562.486 822.514, 1561.652 817.471, 1557.846 802.500 C 1556.168 795.900, 1553.993 786.225, 1553.012 781 C 1550.711 768.739, 1550.106 766.575, 1542.477 743.314 C 1538.958 732.588, 1534.992 721.942, 1533.662 719.656 C 1530.353 713.969, 1526.792 703.744, 1522.543 687.731 C 1519.258 675.351, 1516.489 667.799, 1508.155 648.500 C 1506.492 644.650, 1501.678 635.425, 1497.456 628 C 1493.235 620.575, 1487.534 610.029, 1484.788 604.564 C 1482.042 599.099, 1478.516 593.024, 1476.953 591.064 C 1473.789 587.096, 1458.680 560.740, 1455.992 554.500 C 1455.044 552.300, 1449.371 544.040, 1443.384 536.144 C 1437.398 528.248, 1430.025 518.111, 1427 513.617 C 1418.039 500.305, 1404.511 483.646, 1397.266 477 C 1389.285 469.679, 1380.911 464.908, 1381.032 467.750 C 1381.049 468.163, 1387.574 475.208, 1395.532 483.407 C 1408.149 496.408, 1411.764 501, 1409.380 501 C 1407.960 501, 1388.124 482.896, 1379.165 473.424 C 1373.849 467.802, 1365.675 459.947, 1361 455.966 C 1356.325 451.986, 1350.780 447.166, 1348.677 445.257 L 1344.854 441.784 1346.927 439.578 C 1349.159 437.202, 1349.625 434.504, 1347.979 433.487 C 1347.418 433.140, 1346.286 434.463, 1345.466 436.428 C 1344.645 438.393, 1343.771 440, 1343.523 440 C 1343.275 440, 1338.195 436.696, 1332.233 432.658 C 1326.271 428.620, 1320.180 425.011, 1318.697 424.639 C 1315.499 423.836, 1315.347 422.583, 1317.934 418.340 C 1318.994 416.602, 1321.215 411.799, 1322.869 407.667 C 1325.769 400.425, 1327.918 396.385, 1338.652 378 C 1351.321 356.301, 1352.941 353.311, 1353.554 350.500 L 1354.209 347.500 1351.854 350.813 C 1348.675 355.288, 1342.207 363.719, 1332 376.694 C 1327.325 382.637, 1321.439 390.311, 1318.919 393.746 C 1316.400 397.182, 1311.641 402.829, 1308.344 406.296 C 1305.048 409.762, 1301.499 414.039, 1300.459 415.799 C 1299.420 417.560, 1298.216 419, 1297.784 419 C 1296.092 419, 1297.191 416.216, 1301.429 409.769 C 1303.862 406.066, 1306.146 402.115, 1306.504 400.988 C 1306.861 399.862, 1310.569 392.766, 1314.742 385.220 C 1330.251 357.179, 1332.630 352, 1330 352 C 1329.450 352, 1328.999 352.563, 1328.997 353.250 C 1328.995 353.938, 1325.485 359.225, 1321.197 365 C 1316.909 370.775, 1307.640 384.050, 1300.599 394.500 C 1293.559 404.950, 1287.451 413.870, 1287.026 414.323 C 1286.602 414.775, 1281.810 413.037, 1276.377 410.460 C 1270.945 407.883, 1265.472 405.381, 1264.216 404.899 C 1261.948 404.030, 1261.972 403.950, 1267.691 393.262 C 1278.341 373.355, 1288.828 351, 1287.516 351 C 1286.949 351, 1282.180 358.436, 1274.028 372.030 C 1267.763 382.478, 1260.035 393.368, 1259.363 392.696 C 1259.167 392.501, 1260.363 389.838, 1262.021 386.778 C 1263.678 383.719, 1267.079 376.330, 1269.580 370.358 C 1272.080 364.386, 1275.486 357.025, 1277.148 354 C 1278.809 350.975, 1281.916 344.064, 1284.051 338.643 C 1286.186 333.221, 1291.098 322.998, 1294.966 315.923 C 1298.835 308.849, 1302 302.834, 1302 302.556 C 1302 302.278, 1303.305 299.200, 1304.900 295.718 C 1306.496 292.235, 1308.738 286.350, 1309.884 282.642 C 1311.029 278.933, 1313.885 272.357, 1316.231 268.030 C 1323.772 254.114, 1318.190 256.904, 1308.486 271.900 C 1293.146 295.607, 1288.845 302.393, 1282.597 312.750 C 1275.976 323.724, 1274.411 325.744, 1273.348 324.681 C 1272.807 324.141, 1279.548 309.150, 1290.739 286 C 1294.329 278.575, 1299.630 267.325, 1302.520 261 C 1305.409 254.675, 1310.528 243.717, 1313.893 236.648 C 1321.892 219.851, 1322.672 216.632, 1316.837 224.500 C 1309.746 234.063, 1303.876 242.969, 1292.384 261.605 C 1290.652 264.412, 1283.762 276.699, 1277.073 288.908 C 1270.383 301.117, 1260.809 317.720, 1255.797 325.803 C 1250.784 333.887, 1240.407 352.425, 1232.737 367 C 1225.067 381.575, 1218.239 394.175, 1217.565 395 C 1216.890 395.825, 1215.118 398.637, 1213.627 401.250 C 1210.763 406.268, 1209.698 406.731, 1205.463 404.801 C 1202.481 403.442, 1202.488 403.139, 1205.810 391.095 C 1206.934 387.023, 1208.786 382.429, 1209.926 380.886 C 1212.391 377.553, 1212.515 376.412, 1210.500 375.638 C 1208.141 374.733, 1208.677 371.425, 1213.500 357.110 C 1215.975 349.765, 1218.004 343.022, 1218.010 342.127 C 1218.024 339.803, 1222.551 330.385, 1226.556 324.351 C 1230.042 319.098, 1232.649 313.481, 1231.179 314.390 C 1230.730 314.667, 1228.178 318.289, 1225.507 322.438 C 1222.836 326.588, 1220.506 329.839, 1220.330 329.663 C 1219.727 329.061, 1228.746 302.515, 1231.936 295.500 C 1236.426 285.627, 1239.781 277.007, 1240.499 273.500 C 1241.092 270.602, 1241.058 270.568, 1239.485 272.500 C 1234.879 278.157, 1224.065 295.784, 1224.035 297.684 C 1224 299.860, 1222.468 302.657, 1212.223 319.250 C 1206.747 328.121, 1203.743 331.552, 1208.284 323.750 C 1209.644 321.413, 1212.828 315.561, 1215.358 310.747 C 1217.888 305.932, 1220.711 300.757, 1221.630 299.247 C 1222.951 297.076, 1222.544 297.289, 1219.690 300.263 C 1212.532 307.720, 1209.994 312.361, 1200.686 335 C 1196.559 345.039, 1185.017 370.077, 1179.135 381.750 C 1176.541 386.897, 1174.378 390, 1173.383 390 C 1171.229 390, 1164.254 384.377, 1163.514 382.043 C 1163.158 380.922, 1165.124 374.783, 1168.397 366.796 C 1174.816 351.128, 1178.734 338.146, 1176.478 340.018 C 1174.204 341.905, 1162.553 359.839, 1159.046 366.851 C 1154.855 375.230, 1153.873 374.005, 1157.894 365.413 C 1159.618 361.728, 1162.166 353.290, 1163.571 346.614 C 1166.261 333.824, 1172.741 312.278, 1174.160 311.401 C 1175.621 310.498, 1175.085 305.247, 1173.470 304.627 C 1172.444 304.233, 1171.557 304.940, 1170.779 306.770 C 1170.142 308.271, 1167.646 312.537, 1165.235 316.248 C 1162.823 319.959, 1159.300 326.709, 1157.407 331.248 C 1153.217 341.294, 1150.583 346.306, 1149.262 346.746 C 1148.105 347.132, 1146.605 337.447, 1147.579 335.873 C 1147.939 335.289, 1148.353 331.778, 1148.497 328.071 C 1148.658 323.949, 1149.561 319.519, 1150.824 316.666 C 1154.262 308.893, 1151.802 311.411, 1145.580 322.033 C 1142.348 327.551, 1139.308 332.310, 1138.825 332.608 C 1138.342 332.907, 1136.162 336.699, 1133.982 341.035 C 1129.798 349.358, 1126.049 360.286, 1121.087 378.624 C 1117.828 390.671, 1113.619 402.549, 1111.858 404.671 C 1110.083 406.810, 1109 406.214, 1109 403.099 C 1109 396.255, 1113.217 372.784, 1115.930 364.523 C 1117.552 359.585, 1118.681 355.348, 1118.439 355.106 C 1118.198 354.864, 1117.871 354.854, 1117.713 355.083 C 1113.865 360.674, 1111.424 365.287, 1107.970 373.500 C 1105.657 379, 1102.875 385.251, 1101.789 387.392 C 1099.723 391.465, 1091.359 401, 1089.853 401 C 1089.373 401, 1089.145 395.937, 1089.346 389.750 C 1089.694 379.048, 1089.587 378.313, 1087.156 374.657 C 1084.764 371.062, 1084.572 369.860, 1084.178 355.976 C 1083.946 347.815, 1084.149 339.869, 1084.628 338.319 C 1085.653 335.004, 1085.258 323, 1084.124 323 C 1083.695 323, 1081.867 326.938, 1080.062 331.750 C 1074.827 345.711, 1074.332 345.490, 1073.499 328.813 C 1073.005 318.933, 1073.160 312.232, 1073.995 307.458 C 1074.663 303.631, 1075.525 295.087, 1075.909 288.472 C 1076.293 281.856, 1076.948 275.894, 1077.363 275.222 C 1077.778 274.550, 1077.801 273.487, 1077.413 272.860 C 1076.405 271.228, 1072.216 282.880, 1069.992 293.500 C 1068.229 301.923, 1061.989 321.499, 1059.966 324.954 C 1059.176 326.303, 1059.057 326.308, 1059.030 324.993 C 1059.014 324.165, 1059.430 321.989, 1059.955 320.157 C 1060.609 317.876, 1060.557 316.264, 1059.790 315.036 C 1058.915 313.634, 1059.112 312.352, 1060.692 309.158 C 1062.396 305.713, 1062.574 304.245, 1061.829 299.787 C 1061.342 296.879, 1061.224 292.475, 1061.566 290 C 1061.908 287.525, 1061.964 285.725, 1061.691 286 C 1058.916 288.799, 1050.536 317.845, 1043.370 349.500 C 1041.334 358.494, 1038.774 364.354, 1035.008 368.644 L 1032 372.070 1031.947 367.785 C 1031.803 356.134, 1030.283 348.384, 1028.493 350.174 C 1027.856 350.810, 1024.091 363.246, 1023.299 367.329 C 1022.705 370.387, 1020.472 371.872, 1018.871 370.271 C 1018.324 369.724, 1017.001 362.127, 1015.930 353.388 C 1014.860 344.650, 1013.313 336.226, 1012.492 334.669 C 1010.600 331.078, 1010.396 296.621, 1012.176 281.232 C 1013.021 273.929, 1013.055 270.655, 1012.293 269.893 C 1011.530 269.130, 1011.009 270.940, 1010.487 276.160 C 1010.083 280.197, 1009.341 284.588, 1008.838 285.917 C 1007.950 288.261, 1007.881 288.276, 1006.567 286.400 C 1005.188 284.430, 1005.219 282.174, 1007.459 222.500 C 1008.056 206.596, 1006.814 205, 1005.515 220 C 1005.110 224.675, 1004.425 228.950, 1003.993 229.500 C 1002.372 231.565, 1000.860 246.146, 1000.284 265.250 C 999.957 276.113, 999.369 285, 998.976 285 C 997.756 285, 996.995 278.202, 996.022 258.591 C 995.135 240.728, 994.124 235.563, 992.144 238.767 C 991.305 240.124, 988.508 263.571, 986.986 282 C 985.790 296.488, 985.144 300.207, 983.949 299.469 C 982.679 298.683, 982.865 278.969, 984.487 242.500 C 985.928 210.116, 985.777 176.377, 984.184 174.784 C 982.671 173.271, 982.201 175.863, 980.559 194.792 C 979.436 207.745, 978.661 212.482, 977.472 213.671 C 976.599 214.544, 976.139 215.919, 976.449 216.727 C 977.187 218.650, 973.260 242.134, 971.493 246.362 C 968.995 252.341, 965.312 277.186, 962.504 307 C 958.529 349.207, 954.756 374.411, 952.523 373.681 C 951.960 373.497, 950.923 371.581, 950.218 369.423 C 949.513 367.266, 948.326 364.150, 947.580 362.500 C 946.835 360.850, 946.198 356.596, 946.166 353.047 C 946.098 345.625, 945.170 339.223, 944.062 338.538 C 943.642 338.279, 942.701 339.964, 941.971 342.283 C 940.194 347.933, 938.143 352, 937.072 352 C 935.791 352, 934.002 346.264, 933.985 342.101 C 933.976 340.120, 933.575 337.878, 933.093 337.117 C 932.148 335.624, 931.646 337.333, 930.435 346.179 C 929.996 349.382, 929.392 350.704, 928.521 350.370 C 926.734 349.684, 925.656 342.878, 925.871 333.635 C 925.971 329.309, 925.631 325.259, 925.115 324.635 C 924.599 324.011, 924.025 322.249, 923.838 320.719 C 923.296 316.260, 921.677 317.343, 919.092 323.896 C 917.768 327.253, 916.121 330, 915.433 330 C 914.654 330, 913.735 327.261, 913.001 322.750 C 912.352 318.762, 910.759 311.450, 909.460 306.500 C 906.631 295.716, 905.048 289.543, 904.078 285.500 C 903.435 282.825, 903.234 283.203, 902.223 289 C 900.576 298.439, 900.182 339.961, 901.605 354.138 C 902.199 360.064, 901.106 362.163, 898.538 360.031 C 895.106 357.183, 876.002 293.044, 877.456 289.254 C 877.721 288.564, 877.664 287.287, 877.329 286.416 C 876.841 285.144, 876.560 285.094, 875.897 286.166 C 873.788 289.577, 870.405 281.065, 867.483 265 C 866.733 260.875, 865.451 254.140, 864.634 250.033 C 863.818 245.927, 863.414 242.140, 863.736 241.618 C 864.059 241.096, 863.032 239.640, 861.454 238.382 C 858.615 236.118, 858.575 235.939, 857.651 221.076 C 857.137 212.816, 856.390 206.259, 855.992 206.505 C 855.594 206.751, 855.485 208.088, 855.751 209.476 C 856.215 211.903, 854.732 212.994, 853.556 211.091 C 853.247 210.591, 852.126 205.089, 851.063 198.864 C 849.691 190.822, 849.438 187.177, 850.189 186.273 C 850.947 185.359, 850.895 185, 850.006 185 C 849.248 185, 848.976 184.202, 849.305 182.943 C 849.634 181.685, 849.411 181.030, 848.730 181.257 C 847.687 181.604, 847.568 192.493, 848.590 194.145 C 848.823 194.522, 849.476 203.756, 850.042 214.665 C 850.608 225.574, 851.337 238.445, 851.662 243.267 C 852.167 250.757, 852.037 251.951, 850.771 251.466 C 848.768 250.697, 845.208 235.792, 843.413 220.654 C 842.620 213.969, 841.511 205.384, 840.947 201.576 C 840.384 197.768, 839.646 190.420, 839.306 185.247 C 838.741 176.657, 838.442 175.596, 835.853 173.007 C 833.879 171.033, 831.932 166.806, 829.440 159.089 C 827.473 152.993, 825.219 147.362, 824.431 146.574 C 823.644 145.787, 823 144.888, 823 144.577 C 823 143.065, 813.580 124.898, 812.216 123.781 C 810.854 122.665, 810.739 122.821, 811.317 125 M 817.624 140.666 C 818.011 142.225, 818.935 144.963, 819.678 146.752 C 820.421 148.540, 821.702 153.040, 822.526 156.752 C 823.349 160.463, 824.663 165.750, 825.444 168.500 L 826.865 173.500 826.933 168.799 C 827.009 163.497, 825.313 154.510, 823.668 151.500 C 823.067 150.400, 822.664 149.183, 822.772 148.797 C 822.880 148.410, 822.113 146.097, 821.067 143.657 C 818.787 138.338, 816.566 136.409, 817.624 140.666 M 828.361 179.750 C 828.633 180.713, 829.159 184.760, 829.529 188.744 C 829.899 192.729, 831.054 198.579, 832.095 201.744 L 833.988 207.500 833.398 201.500 C 833.074 198.200, 832.631 193.025, 832.415 190 C 831.766 180.904, 831.033 178, 829.387 178 C 828.416 178, 828.044 178.633, 828.361 179.750 M 722.622 280.681 C 723.391 287.504, 723.225 287.097, 724.833 286.103 C 725.847 285.477, 725.867 284.358, 724.931 280.641 C 723.215 273.827, 721.852 273.850, 722.622 280.681 M 1163.187 393.675 C 1162.572 395.229, 1161.771 397.850, 1161.406 399.500 C 1161.041 401.150, 1159.924 403.866, 1158.923 405.535 C 1156.370 409.792, 1152.913 426, 1154.558 426 C 1156.625 426, 1161.820 419.307, 1165.640 411.721 C 1170.229 402.609, 1170.601 397.146, 1166.885 393.430 L 1164.305 390.850 1163.187 393.675 M 1256.584 416.250 C 1256.334 417.488, 1255.901 420.205, 1255.621 422.288 C 1255.342 424.372, 1253.960 427.447, 1252.550 429.123 C 1249.639 432.583, 1249.849 433.361, 1254.313 435.644 C 1256.066 436.541, 1259.140 438.562, 1261.144 440.137 C 1263.148 441.712, 1265.008 443, 1265.277 443 C 1265.546 443, 1267.904 440.087, 1270.519 436.526 C 1273.133 432.965, 1276.400 429.313, 1277.778 428.410 L 1280.285 426.767 1273.393 423.117 C 1269.602 421.109, 1264.708 418.236, 1262.518 416.733 C 1257.691 413.420, 1257.164 413.377, 1256.584 416.250 M 616.837 419.750 C 614.300 422.363, 609.942 426.300, 607.153 428.500 C 604.363 430.700, 602.062 433.150, 602.040 433.945 C 602.018 434.740, 603.056 436.540, 604.347 437.945 C 605.638 439.350, 609.747 444.325, 613.478 449 C 624.152 462.377, 636.573 475, 639.061 475 C 640.974 475, 641.150 474.620, 640.565 471.750 C 640.201 469.962, 639.947 466.199, 640.001 463.386 C 640.081 459.229, 639.605 457.684, 637.454 455.127 C 634.411 451.511, 633.095 444.796, 634.983 442.521 C 635.667 441.696, 636.626 441.269, 637.113 441.570 C 639.423 442.997, 637.561 438.611, 633.624 433.349 C 631.217 430.132, 627.836 424.688, 626.110 421.250 C 624.383 417.813, 622.629 415, 622.210 415 C 621.791 415, 619.373 417.137, 616.837 419.750 M 1312.537 430.940 C 1311.923 431.934, 1313.583 433.350, 1326.659 442.987 C 1331.146 446.294, 1335.308 449, 1335.909 449 C 1337.912 449, 1337.073 443.415, 1334.750 441.293 C 1326.050 433.346, 1314.405 427.918, 1312.537 430.940 M 928.031 452 C 928.031 455.575, 928.467 459.175, 929 460 C 929.680 461.053, 929.969 459.561, 929.969 455 C 929.969 451.425, 929.533 447.825, 929 447 C 928.320 445.947, 928.031 447.439, 928.031 452 M 1341.393 449.582 C 1341.727 450.452, 1342 451.309, 1342 451.486 C 1342 452.044, 1365.533 473.463, 1370.100 477.061 L 1374.465 480.500 1372.325 477.500 C 1368.075 471.542, 1358.515 461.695, 1350.400 454.917 C 1341.835 447.763, 1340.360 446.889, 1341.393 449.582 M 1304.177 456.665 C 1304.355 457.580, 1306.075 459.202, 1308 460.269 C 1309.925 461.335, 1313.390 463.748, 1315.701 465.630 C 1319.627 468.829, 1319.967 468.931, 1320.903 467.181 C 1322.279 464.610, 1320.249 461.940, 1313.991 458.089 C 1308.379 454.636, 1303.649 453.950, 1304.177 456.665 M 1299.508 463.991 C 1298.632 464.960, 1297.664 467.297, 1297.357 469.185 C 1296.867 472.204, 1297.238 473.002, 1300.435 475.809 C 1302.434 477.564, 1304.645 479, 1305.348 479 C 1306.051 479, 1307.919 477.651, 1309.499 476.001 C 1312.341 473.034, 1312.354 472.966, 1310.721 469.542 C 1309.663 467.323, 1307.641 465.390, 1305.086 464.156 C 1301.286 462.320, 1301.028 462.312, 1299.508 463.991 M 520.258 468.670 C 513.081 472.616, 494.736 490.376, 495.217 492.913 C 495.385 493.802, 496.729 494.640, 498.270 494.818 C 502.818 495.342, 511.887 486.660, 524.456 469.750 C 526.398 467.137, 527.652 465.054, 527.243 465.119 C 526.835 465.185, 523.691 466.783, 520.258 468.670 M 1330.037 487.926 C 1326.342 495.247, 1326.211 497.684, 1329.436 499.153 C 1332.841 500.704, 1334.306 499.860, 1337.412 494.560 C 1340.472 489.339, 1340.224 487.545, 1335.986 484.205 L 1333.074 481.910 1330.037 487.926 M 540.770 511.977 C 535.574 516.364, 529.508 522.552, 527.290 525.727 C 522.034 533.251, 517.782 541.747, 518.919 542.450 C 519.878 543.042, 525 537.505, 525 535.876 C 525 535.342, 530.082 529.639, 536.293 523.203 C 546.635 512.486, 552 506.131, 552 504.596 C 552 502.977, 549.428 504.667, 540.770 511.977 M 1352.828 511.750 C 1352.012 512.712, 1350.771 515.508, 1350.069 517.961 L 1348.793 522.422 1352.647 525.882 C 1368.347 539.977, 1374.716 546.985, 1381.836 558 C 1384.858 562.675, 1393.444 575.683, 1400.915 586.907 C 1408.387 598.130, 1415.426 608.806, 1416.557 610.630 C 1417.688 612.454, 1418.906 614.240, 1419.264 614.597 C 1420.507 615.840, 1418.722 607.491, 1417.423 605.985 C 1416.704 605.152, 1415.690 602.574, 1415.169 600.256 C 1414.648 597.938, 1413.325 594.569, 1412.229 592.771 C 1411.134 590.972, 1406.518 583.425, 1401.974 576 C 1397.429 568.575, 1392.270 560.025, 1390.510 557 C 1383.863 545.575, 1382.455 543.446, 1380.258 541.500 C 1379.017 540.400, 1376.523 537.025, 1374.718 534 C 1370.501 526.937, 1356.888 510, 1355.428 510 C 1354.813 510, 1353.643 510.788, 1352.828 511.750 M 1215.084 514.411 C 1213.363 516.243, 1212.923 517.556, 1213.397 519.445 C 1214.114 522.303, 1213.786 522.508, 1211.141 520.856 C 1209.655 519.928, 1208.713 520.152, 1206.154 522.044 C 1204.419 523.327, 1203 524.801, 1203 525.320 C 1203 526.755, 1210.092 533.136, 1211.256 532.748 C 1211.817 532.561, 1213.007 530.541, 1213.899 528.258 C 1214.791 525.976, 1216.789 522.786, 1218.338 521.169 C 1220.366 519.052, 1221.063 517.429, 1220.827 515.373 C 1220.404 511.676, 1218.027 511.278, 1215.084 514.411 M 545.545 541.590 C 543.369 544.291, 538.831 549.650, 535.459 553.500 C 532.088 557.350, 527.863 563.200, 526.071 566.500 C 524.279 569.800, 521.453 574.975, 519.790 578 C 517.118 582.861, 517.029 583.268, 519.018 581.500 C 521.238 579.528, 527.012 572.660, 538.227 558.653 C 544.715 550.549, 550.295 540.762, 549.819 538.320 C 549.593 537.158, 548.348 538.110, 545.545 541.590 M 592.054 552.203 C 588.449 556.213, 581.778 563.231, 577.229 567.800 C 572.680 572.368, 567.782 577.995, 566.345 580.303 C 564.907 582.611, 560.267 588.775, 556.033 594 C 541.541 611.884, 530.880 629.084, 523.493 646.500 C 520.927 652.550, 514.103 667.175, 508.329 679 C 495.003 706.293, 486.657 725.663, 487.395 727.586 C 488.891 731.486, 492.206 725.834, 503.979 699.313 C 510.770 684.016, 518.754 666.550, 521.723 660.500 C 526.541 650.679, 549.561 615.012, 558.925 602.860 C 560.891 600.307, 564.300 595.642, 566.500 592.492 C 574.160 581.523, 580.192 574.452, 588.219 567.033 C 599.265 556.822, 604.278 550.388, 603.020 548.038 C 600.813 543.914, 598.827 544.669, 592.054 552.203 M 1086.834 548.250 C 1085.377 550.901, 1084.953 556.853, 1086.167 557.603 C 1087.053 558.151, 1087.729 556.873, 1088.338 553.500 C 1088.677 551.627, 1089.792 548.456, 1090.713 546.750 C 1090.936 546.337, 1090.432 546, 1089.594 546 C 1088.756 546, 1087.514 547.013, 1086.834 548.250 M 605 564.131 C 600.325 569.150, 594.025 576.494, 591 580.453 C 587.975 584.411, 581.293 592.763, 576.150 599.012 C 564.356 613.344, 556.743 624.656, 548.641 639.887 C 537.482 660.863, 538.428 660.323, 554.057 636.792 C 560.708 626.777, 572.304 611.030, 579.825 601.799 C 587.346 592.568, 596.341 581.524, 599.812 577.257 C 603.284 572.991, 608.347 566.943, 611.062 563.817 C 615.890 558.261, 617.256 554.996, 614.750 555.004 C 614.063 555.006, 609.675 559.113, 605 564.131 M 789 556.317 C 789 557.594, 794.051 567.913, 794.947 568.467 C 796.540 569.452, 796.241 568.203, 793.498 562.404 C 791.393 557.955, 789 554.716, 789 556.317 M 515.207 570.874 C 509.723 576.862, 499.591 594, 501.535 594 C 503.456 594, 520.948 567.583, 519.775 566.452 C 519.624 566.306, 517.568 568.296, 515.207 570.874 M 1263.473 574.253 C 1262.937 576.385, 1263.430 577.413, 1266.158 579.850 C 1267.995 581.491, 1269.665 582.668, 1269.869 582.464 C 1270.716 581.617, 1268.889 577.181, 1266.592 574.509 L 1264.128 571.641 1263.473 574.253 M 624.888 585.718 C 616.512 597.224, 615.015 599.454, 611.271 606 C 609.541 609.025, 605.398 614.737, 602.063 618.692 C 596.316 625.510, 594.923 628, 596.855 628 C 598.470 628, 607.781 617.351, 610.033 612.927 C 611.273 610.492, 613.729 606.700, 615.491 604.500 C 621.845 596.568, 632.716 578.383, 631.707 577.374 C 631.470 577.136, 628.401 580.891, 624.888 585.718 M 478.180 597.571 C 473.860 602.462, 459 632.475, 459 636.308 C 459 637.104, 458.369 638.279, 457.597 638.919 C 456.826 639.559, 455.993 641.977, 455.747 644.292 C 455.266 648.805, 447.874 669.398, 442.982 679.851 C 439.594 687.092, 439.439 687.710, 441.424 686.063 C 443.130 684.647, 449.414 671.924, 454.531 659.523 C 458.890 648.958, 461.342 643.508, 468.716 628 C 478.996 606.379, 482.164 598.870, 481.614 597.435 C 480.918 595.624, 479.863 595.666, 478.180 597.571 M 620.296 610.086 C 618.490 611.243, 613.344 617.669, 608.497 624.819 C 599.129 638.640, 598.389 639.674, 589.405 651.486 C 577.263 667.451, 564.734 687.522, 557.559 702.500 C 547.293 723.931, 544.009 731.015, 541.565 737 C 540.105 740.575, 538.494 744.400, 537.984 745.500 C 535.164 751.591, 523.184 790.601, 520.633 802 C 516.479 820.564, 511.807 847.484, 511.536 854.417 C 511.455 856.487, 513.962 855.965, 514.398 853.821 C 514.658 852.544, 516.211 844.975, 517.850 837 C 519.489 829.025, 521.586 818.675, 522.509 814 C 527.583 788.298, 532.473 772.922, 542.542 751 C 546.206 743.025, 552.301 729.587, 556.087 721.138 C 567.865 694.854, 585.814 663.626, 599.793 645.099 C 601.619 642.679, 604.053 638.854, 605.202 636.599 C 606.350 634.345, 609.024 630.475, 611.143 628 C 625.459 611.281, 628.879 604.588, 620.296 610.086 M 581.586 646.750 C 577.426 652.663, 570.172 662.225, 565.466 668 C 554.347 681.645, 546.858 697, 551.321 697 C 552.567 697, 557.085 689.468, 565.416 673.500 C 567.466 669.571, 572.148 663.209, 576.087 659 C 587.772 646.512, 594.139 636, 590.016 636 C 589.540 636, 585.746 640.837, 581.586 646.750 M 547.135 706.144 C 546.629 707.476, 544.542 710.757, 542.498 713.435 C 538.596 718.547, 531 733.356, 531 735.852 C 531 738.776, 534.497 734.226, 538.348 726.291 C 540.427 722.006, 543.687 715.399, 545.591 711.610 C 547.495 707.820, 548.829 704.495, 548.554 704.221 C 548.280 703.947, 547.642 704.812, 547.135 706.144 M 1320.314 721.250 C 1320.604 721.938, 1322.210 725.650, 1323.882 729.500 C 1327.553 737.952, 1333.364 752.948, 1336.669 762.500 C 1339.824 771.616, 1353.367 818.860, 1354.443 824.500 C 1354.652 825.600, 1355.749 831.225, 1356.879 837 C 1358.709 846.350, 1360.466 859.857, 1363.919 891.111 C 1364.503 896.398, 1365.266 907.198, 1365.615 915.111 C 1366.652 938.595, 1362.164 987.702, 1356.959 1009.829 C 1355.882 1014.410, 1354.997 1019.135, 1354.994 1020.329 C 1354.990 1021.523, 1354.358 1023.707, 1353.588 1025.183 C 1352.818 1026.658, 1351.896 1029.358, 1351.539 1031.183 C 1349.234 1042.969, 1346.512 1054.614, 1344.411 1061.680 C 1341.379 1071.876, 1327.600 1107.493, 1322.082 1119.396 C 1319.813 1124.288, 1318.188 1128.521, 1318.469 1128.803 C 1318.751 1129.084, 1319.905 1128.902, 1321.034 1128.398 C 1324.288 1126.946, 1334.380 1101.617, 1343.485 1072.048 C 1346.607 1061.910, 1350.204 1051.557, 1351.479 1049.041 C 1354.475 1043.128, 1355.885 1037.779, 1356.487 1030.042 C 1356.754 1026.612, 1357.647 1020.137, 1358.472 1015.653 C 1359.298 1011.169, 1360.191 1003.953, 1360.459 999.617 C 1360.732 995.179, 1361.583 990.759, 1362.406 989.503 C 1363.210 988.277, 1364.347 983.724, 1364.934 979.386 C 1369.174 948.048, 1370.159 915.405, 1367.540 892.994 C 1366.738 886.122, 1365.599 875.325, 1365.010 869 C 1364.421 862.675, 1363.021 852.100, 1361.899 845.500 C 1360.777 838.900, 1360.090 832.333, 1360.373 830.906 C 1360.656 829.480, 1360.013 825.502, 1358.944 822.067 C 1357.875 818.632, 1357 814.356, 1357 812.565 C 1357 810.773, 1356.315 807.934, 1355.478 806.256 C 1354.640 804.577, 1353.011 799.446, 1351.857 794.852 C 1350.703 790.258, 1349.199 785.375, 1348.513 784 C 1347.828 782.625, 1346.952 779.761, 1346.567 777.636 C 1345.886 773.879, 1344.322 770.104, 1337.360 755.409 C 1335.512 751.508, 1334.014 747.908, 1334.032 747.409 C 1334.050 746.909, 1331.707 740.538, 1328.826 733.250 C 1324.669 722.733, 1323.196 720, 1321.687 720 C 1320.551 720, 1319.999 720.503, 1320.314 721.250 M 444.612 743.575 C 443.088 747.934, 440.912 754.098, 439.778 757.274 C 437.851 762.666, 437.909 765.577, 439.900 763.433 C 441.734 761.459, 448.470 738.911, 447.814 736.943 C 447.577 736.232, 446.136 739.217, 444.612 743.575 M 521.416 763.310 C 518.830 766.028, 515 775.354, 515 778.933 C 515 781.412, 516.554 784, 518.042 784 C 518.395 784, 519.244 782.087, 519.929 779.750 C 520.614 777.413, 522.314 772.928, 523.708 769.786 C 527.128 762.071, 525.900 758.599, 521.416 763.310 M 322.667 850.667 C 322.300 851.033, 322 855.758, 322 861.167 C 322 867.056, 321.599 871, 321 871 C 319.845 871, 319.780 876.579, 320.902 879.446 C 321.608 881.249, 321.712 881.212, 322.312 878.946 C 323.128 875.864, 324.474 850, 323.819 850 C 323.552 850, 323.033 850.300, 322.667 850.667 M 1565.392 888.030 C 1565.757 894.371, 1566.408 900.879, 1566.839 902.492 C 1568.403 908.337, 1569.071 902.021, 1567.990 891.615 C 1566.658 878.783, 1566.562 878.218, 1565.560 877.279 C 1565.103 876.851, 1565.027 881.688, 1565.392 888.030 M 507 896.611 C 507 899.653, 510.459 912.988, 511.250 912.994 C 512.179 913.001, 512.137 912.298, 510.653 903.076 C 509.996 898.994, 508.906 895.469, 508.229 895.243 C 507.553 895.018, 507 895.633, 507 896.611 M 1567.015 916.750 C 1567.006 923.816, 1567.383 928, 1568.031 928 C 1569.297 928, 1569.186 908.903, 1567.908 906.885 C 1567.374 906.043, 1567.025 909.911, 1567.015 916.750 M 488.147 922.750 C 488.560 926.462, 488.920 930.527, 488.949 931.781 C 488.977 933.036, 489.705 934.333, 490.567 934.664 C 493.310 935.717, 494.083 933.711, 493.044 928.234 C 492.508 925.404, 491.963 921.514, 491.833 919.589 C 491.648 916.846, 491.316 916.322, 490.299 917.167 C 489.365 917.942, 489 917.929, 489 917.122 C 489 916.505, 488.639 916, 488.198 916 C 487.757 916, 487.734 919.038, 488.147 922.750 M 491.938 938.191 C 490.988 942.910, 491.077 947.141, 492.118 946.794 C 494.115 946.128, 495.725 942.825, 494.306 942.307 C 493.650 942.067, 493.343 941.270, 493.624 940.537 C 493.906 939.803, 493.656 938.905, 493.068 938.542 C 492.481 938.179, 491.972 938.021, 491.938 938.191 M 515.597 965.843 C 514.617 967.428, 519.439 1004.082, 521.014 1007.026 C 522.194 1009.232, 524.008 1009.673, 523.985 1007.750 C 523.977 1007.063, 523.342 1003.800, 522.574 1000.500 C 521.806 997.200, 520.887 991.350, 520.532 987.500 C 519.001 970.874, 517.247 963.174, 515.597 965.843 M 507.079 983.250 C 507.036 984.212, 506.550 985, 506 985 C 505.450 985, 505 985.478, 505 986.062 C 505 987.745, 510.064 998, 510.895 998 C 511.308 998, 510.821 994.737, 509.813 990.750 C 507.646 982.173, 507.185 980.908, 507.079 983.250 M 1378.589 985.250 C 1376.609 998.072, 1376.302 1000.895, 1376.553 1003.997 C 1376.708 1005.920, 1376.498 1007.945, 1376.087 1008.497 C 1375.676 1009.049, 1375.825 1012.161, 1376.420 1015.414 C 1377.396 1020.760, 1377.638 1021.160, 1378.938 1019.584 C 1380.065 1018.218, 1380.390 1013.964, 1380.438 999.921 C 1380.496 983.246, 1379.778 977.551, 1378.589 985.250 M 1371 1006.600 C 1371 1007.700, 1370.566 1009.034, 1370.037 1009.563 C 1369.507 1010.093, 1368.843 1013.221, 1368.563 1016.513 C 1368.124 1021.655, 1368.179 1021.936, 1368.951 1018.500 C 1369.445 1016.300, 1370.589 1012.753, 1371.493 1010.618 C 1372.659 1007.865, 1372.826 1006.426, 1372.068 1005.668 C 1371.311 1004.911, 1371 1005.181, 1371 1006.600 M 1362.883 1034.750 C 1362.010 1037.362, 1360.556 1041.975, 1359.651 1045 C 1358.747 1048.025, 1356.664 1054.865, 1355.023 1060.200 C 1353.382 1065.535, 1351.739 1071.835, 1351.373 1074.200 C 1351.006 1076.565, 1349.647 1080.918, 1348.353 1083.874 C 1347.059 1086.830, 1346 1089.418, 1346 1089.624 C 1346 1089.831, 1347.033 1090, 1348.296 1090 C 1350.357 1090, 1350.715 1089.286, 1351.785 1083.047 C 1352.441 1079.223, 1354.435 1071.686, 1356.216 1066.297 C 1357.998 1060.909, 1359.359 1055.715, 1359.240 1054.755 C 1359.122 1053.795, 1359.924 1050.730, 1361.022 1047.944 C 1362.120 1045.158, 1363.481 1040.768, 1364.046 1038.189 C 1364.611 1035.610, 1365.312 1032.713, 1365.604 1031.750 C 1365.896 1030.787, 1365.760 1030, 1365.302 1030 C 1364.844 1030, 1363.755 1032.138, 1362.883 1034.750 M 530.255 1034.250 C 530.512 1034.938, 531.733 1038.875, 532.967 1043 C 535.625 1051.884, 538.714 1059.724, 540.650 1062.500 C 541.926 1064.328, 541.987 1064.200, 541.368 1061 C 540.995 1059.075, 539.901 1055.250, 538.938 1052.500 C 537.974 1049.750, 536.401 1045.250, 535.443 1042.500 C 532.340 1033.590, 532.059 1033, 530.914 1033 C 530.294 1033, 529.997 1033.563, 530.255 1034.250 M 546.567 1084.250 C 548.898 1091.719, 570.691 1136.643, 571.561 1135.772 C 572.442 1134.892, 561.681 1110.431, 550.435 1087.750 C 547.618 1082.070, 545.206 1079.887, 546.567 1084.250 M 537.351 1089.250 C 547.356 1106.708, 556.522 1127.476, 555.452 1130.264 C 553.938 1134.210, 565.638 1150.743, 586.176 1173.679 C 595.966 1184.612, 599 1187.215, 599 1184.681 C 599 1182.519, 586.551 1167.745, 575.546 1156.846 C 569.745 1151.102, 565 1145.862, 565 1145.201 C 565 1144.540, 565.873 1144, 566.941 1144 C 570.533 1144, 569.968 1142.307, 565.977 1141.111 C 562.984 1140.215, 561.855 1139.272, 561.346 1137.242 C 560.976 1135.767, 559.879 1133.196, 558.909 1131.530 C 557.940 1129.863, 555.268 1123.325, 552.972 1117 C 547.082 1100.772, 539.087 1085, 536.752 1085 C 535.064 1085, 535.113 1085.344, 537.351 1089.250 M 1505.500 1136.705 C 1477.933 1137.020, 1422.394 1138.925, 1394 1140.530 C 1379.975 1141.322, 1356.350 1142.656, 1341.500 1143.494 C 1326.650 1144.331, 1303.925 1145.688, 1291 1146.509 C 1278.075 1147.329, 1260.300 1148.456, 1251.500 1149.012 C 1231.304 1150.288, 1179.260 1154.393, 1150.500 1156.978 C 1125.356 1159.238, 1094.078 1161.500, 1039.500 1165.004 C 1030.700 1165.569, 1016.750 1166.691, 1008.500 1167.496 C 984.747 1169.816, 949.708 1172.895, 935 1173.955 C 916.573 1175.283, 853.264 1180.582, 827 1182.994 C 786.647 1186.699, 771.502 1187.963, 755.500 1188.961 C 746.700 1189.510, 736.575 1190.196, 733 1190.486 C 714.787 1191.963, 658.542 1197.153, 652 1197.961 C 636.041 1199.930, 589.059 1202.717, 533.500 1204.990 C 519.750 1205.552, 502.200 1206.464, 494.500 1207.017 C 486.800 1207.569, 464.975 1208.687, 446 1209.501 C 427.025 1210.314, 402.500 1211.524, 391.500 1212.190 C 378.244 1212.993, 340.308 1213.383, 279 1213.349 C 181.053 1213.294, 152.303 1212.380, 111 1208.004 C 89.004 1205.673, 68.106 1203.965, 63.105 1204.089 C 59.564 1204.177, 59.589 1204.203, 64.500 1205.570 C 71 1207.378, 93.165 1211.501, 104 1212.917 C 123.604 1215.480, 154.417 1218.904, 167 1219.918 C 189.078 1221.699, 193.199 1221.964, 223.500 1223.560 C 279.575 1226.512, 293.895 1226.938, 338.275 1226.969 L 383.050 1227 384.051 1229.750 C 385.737 1234.377, 390.053 1241.983, 397.528 1253.500 C 401.455 1259.550, 406.969 1268.100, 409.782 1272.500 C 425.477 1297.056, 448.700 1327.690, 461 1340.062 C 480.711 1359.890, 521.085 1396.356, 535.342 1407.209 C 540.929 1411.462, 548.650 1417.653, 552.500 1420.967 C 559.700 1427.165, 576.106 1440.083, 590.889 1451.194 C 604.243 1461.233, 615.771 1468.703, 626 1473.947 C 631.225 1476.625, 640.450 1481.840, 646.500 1485.534 C 695.194 1515.271, 711.468 1523.792, 729.227 1528.850 C 735.126 1530.530, 740.905 1532.414, 742.069 1533.037 C 743.232 1533.659, 746.881 1535.054, 750.177 1536.136 C 754.862 1537.674, 756.482 1537.845, 757.598 1536.918 C 758.549 1536.129, 761.444 1535.907, 766.263 1536.253 C 775.853 1536.943, 785.778 1535.494, 789.343 1532.884 C 791.081 1531.611, 793.024 1531.014, 794.343 1531.347 C 795.529 1531.646, 798.959 1532.590, 801.965 1533.445 C 804.971 1534.299, 808.121 1534.784, 808.965 1534.521 C 813.063 1533.248, 830.516 1531.102, 841 1530.583 C 850.629 1530.105, 868.557 1525.786, 876.270 1522.085 C 880.803 1519.910, 885.800 1516.224, 891.392 1510.930 C 898.502 1504.201, 900.507 1501.528, 904.872 1492.964 C 907.692 1487.431, 910 1482.313, 910 1481.590 C 910 1480.868, 911.350 1477.299, 913 1473.660 C 914.650 1470.021, 916 1466.541, 916 1465.926 C 916 1465.312, 916.928 1463.506, 918.062 1461.913 C 920.025 1459.156, 920.043 1458.882, 918.447 1456.180 C 916.898 1453.558, 916.894 1453.107, 918.386 1450.221 C 919.274 1448.504, 920 1445.559, 920 1443.676 C 920 1438.937, 916.497 1425.364, 914.586 1422.699 C 908.599 1414.347, 896.362 1400.404, 886 1390.128 C 877.609 1381.807, 868.834 1375.811, 855.500 1369.289 C 848.180 1365.709, 845.660 1364.944, 842 1365.193 C 838.689 1365.418, 836.544 1364.904, 833.882 1363.249 C 831.892 1362.012, 829.530 1361, 828.632 1361 C 826.443 1361, 826.540 1363.733, 828.750 1364.311 C 830.112 1364.667, 830.018 1364.794, 828.327 1364.884 C 827.131 1364.948, 824.816 1363.875, 823.182 1362.500 C 821.548 1361.125, 819.775 1360, 819.241 1360 C 818.707 1360, 812.137 1356.850, 804.640 1353 C 792.199 1346.610, 786.948 1344.747, 787.031 1346.750 C 787.048 1347.162, 791.998 1349.935, 798.031 1352.912 C 808.861 1358.255, 810.416 1359.519, 807.523 1360.629 C 802.033 1362.736, 755.714 1349.525, 739.279 1341.165 C 732.890 1337.915, 729.017 1336.938, 732.250 1339.392 C 733.213 1340.123, 734 1341.818, 734 1343.160 C 734 1344.502, 734.533 1346.132, 735.183 1346.783 C 737.156 1348.756, 735.233 1349.382, 732.566 1347.635 C 731.194 1346.736, 729.576 1346, 728.972 1346 C 728.368 1346, 725.540 1344.905, 722.687 1343.566 C 719.834 1342.228, 713.711 1339.665, 709.079 1337.872 C 704.448 1336.078, 699.647 1333.686, 698.410 1332.555 C 695.789 1330.159, 694.276 1326, 696.026 1326 C 696.665 1326, 697.412 1326.859, 697.687 1327.910 C 698.300 1330.254, 708.963 1335.141, 714.221 1335.487 C 716.267 1335.622, 719.148 1336.580, 720.622 1337.616 C 722.096 1338.652, 725.097 1340.561, 727.292 1341.858 L 731.282 1344.215 727.641 1340.574 C 725.638 1338.572, 724 1336.540, 724 1336.060 C 724 1335.580, 723.139 1335.413, 722.086 1335.688 C 720.835 1336.015, 719.792 1335.479, 719.076 1334.142 C 718.452 1332.976, 711.425 1328.787, 702.740 1324.405 C 673.056 1309.425, 655.328 1298.562, 638.851 1285.259 C 634.533 1281.773, 631 1279.326, 631 1279.823 C 631 1281.556, 636.720 1287.903, 641.590 1291.574 C 644.291 1293.610, 649.233 1297.801, 652.574 1300.888 C 655.915 1303.975, 661.531 1308.075, 665.054 1310 C 679.572 1317.933, 691 1326.828, 691 1330.196 C 691 1331.188, 690.745 1332, 690.434 1332 C 688.865 1332, 680.306 1326.289, 663.500 1314.028 C 660.750 1312.022, 656.345 1308.832, 653.711 1306.940 C 651.077 1305.048, 646.127 1301.317, 642.711 1298.649 C 631.183 1289.645, 625.933 1288.261, 636.245 1296.944 C 642.117 1301.889, 646.879 1308.454, 645.554 1309.779 C 645.229 1310.104, 643.284 1308.814, 641.232 1306.911 C 639.179 1305.009, 635.925 1302.361, 634 1301.028 C 627.881 1296.788, 610.686 1281.284, 605.451 1275.286 C 602.674 1272.104, 595.037 1262.750, 588.479 1254.500 C 581.921 1246.250, 573.242 1235.900, 569.190 1231.500 L 561.825 1223.500 565.864 1223.195 C 571.218 1222.790, 573.866 1224.662, 580.136 1233.283 C 582.954 1237.157, 586.938 1242.165, 588.988 1244.413 C 591.039 1246.661, 593.911 1250.412, 595.371 1252.750 C 600.649 1261.201, 598.851 1256.674, 590.486 1240.443 C 585.792 1231.337, 582.214 1223.462, 582.535 1222.943 C 584.252 1220.165, 589.179 1224.256, 595.400 1233.626 C 597.545 1236.857, 601.835 1243.325, 604.935 1248 C 608.034 1252.675, 611.193 1257.737, 611.954 1259.250 C 613.468 1262.259, 615.343 1263.068, 614.272 1260.250 C 613.501 1258.222, 605.666 1244.561, 601.535 1238.040 L 598.710 1233.580 601.605 1235.440 C 607.929 1239.503, 616.830 1246.114, 633.772 1259.329 C 643.522 1266.936, 656.873 1277.252, 663.440 1282.254 C 670.007 1287.256, 677.207 1292.933, 679.440 1294.868 C 681.673 1296.804, 680.575 1295.331, 677 1291.595 C 673.425 1287.860, 666.450 1281.549, 661.500 1277.571 C 652.529 1270.362, 649.045 1267, 650.547 1267 C 652.198 1267, 662.828 1273.481, 671 1279.470 C 679.851 1285.958, 687.678 1290.663, 688.394 1289.928 C 688.623 1289.693, 688.965 1288.600, 689.155 1287.500 C 689.345 1286.400, 690.148 1284.993, 690.940 1284.374 C 692.129 1283.445, 691.779 1282.941, 688.940 1281.495 C 684.303 1279.131, 677.802 1274.402, 663.500 1262.991 C 656.900 1257.724, 645.425 1248.889, 638 1243.357 C 623.196 1232.327, 610.700 1221.295, 611.516 1219.975 C 612.133 1218.976, 618.656 1219.844, 621.488 1221.302 C 622.582 1221.865, 626.182 1224.415, 629.488 1226.969 C 632.795 1229.523, 638.650 1234.038, 642.500 1237.004 C 646.350 1239.970, 653.325 1245.493, 658 1249.278 C 667.814 1257.223, 670 1258.608, 670 1256.879 C 670 1254.629, 650.236 1237.313, 634.697 1225.948 L 625.894 1219.510 648.197 1217.817 C 660.464 1216.886, 681.750 1215.191, 695.500 1214.051 C 720.412 1211.985, 756.915 1209.408, 802.500 1206.498 C 815.700 1205.655, 833.025 1204.308, 841 1203.505 C 878.291 1199.748, 909.754 1196.885, 934.500 1194.997 C 949.350 1193.864, 974.775 1191.807, 991 1190.426 C 1007.225 1189.045, 1031.525 1187.045, 1045 1185.982 C 1058.475 1184.919, 1074.450 1183.607, 1080.500 1183.067 C 1086.550 1182.527, 1095.325 1181.805, 1100 1181.463 C 1104.675 1181.120, 1124.700 1179.284, 1144.500 1177.381 C 1195.479 1172.482, 1198.502 1172.202, 1218 1170.568 C 1237.142 1168.964, 1261.073 1167.429, 1281.853 1166.472 C 1292.778 1165.969, 1295.059 1166.098, 1294.395 1167.179 C 1293.949 1167.905, 1292.394 1170.300, 1290.940 1172.500 C 1289.486 1174.700, 1286.124 1179.875, 1283.468 1184 C 1273.502 1199.477, 1252.411 1227.941, 1240.033 1242.617 C 1222.336 1263.600, 1218.002 1269, 1218.860 1269 C 1219.345 1269, 1224.800 1263.364, 1230.982 1256.476 C 1237.164 1249.588, 1244.223 1242.312, 1246.670 1240.307 C 1254.527 1233.869, 1275.975 1207.619, 1282.457 1196.506 C 1286.990 1188.736, 1302.151 1166.581, 1303.474 1165.795 C 1304.127 1165.408, 1306.649 1165.223, 1309.080 1165.384 C 1311.511 1165.545, 1314.625 1165.122, 1316 1164.444 C 1318.296 1163.312, 1331 1160.926, 1331 1161.627 C 1331 1162.317, 1316.100 1183.107, 1309.948 1191 C 1306.305 1195.675, 1301.024 1202.875, 1298.212 1207 C 1282.169 1230.540, 1272.053 1243.204, 1253.283 1263.245 C 1247.352 1269.577, 1238.675 1279.103, 1234 1284.413 C 1225.696 1293.844, 1197.462 1319.360, 1189.500 1324.628 C 1187.300 1326.084, 1184.150 1328.516, 1182.500 1330.033 C 1178.542 1333.673, 1164.085 1343.683, 1152.658 1350.695 C 1130.863 1364.071, 1112.839 1374.650, 1104 1379.255 C 1098.775 1381.978, 1092.700 1385.233, 1090.500 1386.489 C 1088.300 1387.745, 1083.463 1390.286, 1079.750 1392.136 C 1076.038 1393.986, 1073 1395.886, 1073 1396.357 C 1073 1396.828, 1073.563 1396.990, 1074.250 1396.716 C 1074.938 1396.443, 1080.900 1394.100, 1087.500 1391.511 C 1102.640 1385.571, 1135.657 1369.419, 1152 1359.956 C 1158.875 1355.976, 1166.074 1351.828, 1167.997 1350.738 C 1169.920 1349.649, 1172.568 1347.912, 1173.882 1346.879 C 1177.242 1344.236, 1179.318 1344.405, 1178.443 1347.250 L 1177.752 1349.500 1180.126 1347.367 C 1181.432 1346.194, 1183.850 1344.546, 1185.500 1343.706 C 1187.150 1342.865, 1191.232 1340, 1194.572 1337.339 C 1197.911 1334.677, 1203.235 1330.925, 1206.401 1329 C 1209.568 1327.075, 1216.190 1322.855, 1221.118 1319.622 C 1226.046 1316.389, 1230.330 1313.997, 1230.639 1314.305 C 1231.613 1315.280, 1230.172 1316.693, 1224.252 1320.568 C 1221.088 1322.638, 1214.707 1327.520, 1210.070 1331.416 C 1200.890 1339.130, 1190.077 1347.324, 1183 1351.927 C 1180.525 1353.537, 1177.347 1355.752, 1175.938 1356.848 C 1173.088 1359.064, 1154.125 1371, 1153.452 1371 C 1153.217 1371, 1146.832 1374.737, 1139.262 1379.305 C 1123.539 1388.793, 1093.325 1405.851, 1087.750 1408.388 C 1085.688 1409.326, 1084 1410.303, 1084 1410.559 C 1084 1411.503, 1092.578 1409.715, 1094.841 1408.299 C 1096.129 1407.494, 1098.379 1406.621, 1099.841 1406.359 C 1101.303 1406.098, 1103.948 1405.034, 1105.717 1403.995 C 1107.486 1402.956, 1112.436 1400.558, 1116.717 1398.666 C 1153.705 1382.317, 1184.183 1364.676, 1213.216 1342.816 C 1239.744 1322.840, 1245.936 1317.653, 1253.187 1309.327 C 1264.045 1296.860, 1268.468 1292.751, 1270.590 1293.159 C 1272.016 1293.434, 1270.744 1295.314, 1264.607 1302.004 C 1260.321 1306.677, 1255.768 1312.119, 1254.491 1314.097 C 1243.997 1330.348, 1217.707 1354.525, 1195.500 1368.346 C 1191.100 1371.084, 1183.675 1375.843, 1179 1378.921 C 1174.325 1381.998, 1165.550 1387.343, 1159.500 1390.797 C 1153.450 1394.251, 1146.700 1398.661, 1144.500 1400.596 C 1142.300 1402.532, 1136.450 1406.333, 1131.500 1409.042 C 1126.550 1411.752, 1123.076 1413.976, 1123.780 1413.984 C 1125.450 1414.005, 1137.351 1409.004, 1138 1408.009 C 1139.144 1406.255, 1148.133 1400, 1149.509 1400 C 1152.108 1400, 1151.128 1401.894, 1147.250 1404.362 C 1145.188 1405.675, 1141.925 1408.146, 1140 1409.853 C 1138.075 1411.559, 1133.800 1414.385, 1130.500 1416.132 C 1121.738 1420.770, 1119 1422.898, 1119 1425.068 C 1119 1426.131, 1118.550 1427, 1118 1427 C 1117.450 1427, 1117 1426.550, 1117 1426 C 1117 1424.276, 1113.996 1424.906, 1110.683 1427.324 C 1108.932 1428.602, 1105.138 1430.734, 1102.250 1432.060 C 1094.316 1435.705, 1095.481 1437.540, 1103.750 1434.423 C 1107.463 1433.024, 1112.075 1431.415, 1114 1430.847 C 1115.925 1430.279, 1117.928 1429.406, 1118.450 1428.907 C 1118.973 1428.408, 1120.125 1428, 1121.010 1428 C 1121.896 1428, 1125.817 1426.425, 1129.725 1424.500 C 1133.632 1422.575, 1137.373 1421, 1138.037 1421 C 1142.209 1421, 1205.771 1385.408, 1221.131 1374.472 C 1223.678 1372.659, 1227.168 1370.447, 1228.887 1369.558 C 1230.607 1368.669, 1237.523 1363.795, 1244.257 1358.727 C 1256.123 1349.795, 1284.366 1322.825, 1290.397 1314.665 C 1292.267 1312.135, 1293.568 1311.168, 1294.221 1311.821 C 1295.433 1313.033, 1288.742 1322.066, 1275.751 1336.757 C 1267.185 1346.442, 1258.509 1354.361, 1243.478 1366.214 C 1240.190 1368.806, 1235.250 1372.731, 1232.500 1374.937 C 1229.750 1377.142, 1221.257 1383.346, 1213.628 1388.723 C 1205.998 1394.101, 1196.924 1400.525, 1193.464 1403 C 1190.003 1405.475, 1183.646 1410.018, 1179.336 1413.096 C 1175.026 1416.174, 1170.150 1419.453, 1168.500 1420.382 C 1166.850 1421.312, 1163.475 1423.389, 1161 1424.999 C 1158.525 1426.608, 1155.150 1428.601, 1153.500 1429.427 C 1151.850 1430.252, 1148.475 1432.151, 1146 1433.646 C 1143.525 1435.142, 1136.325 1439.196, 1130 1442.657 C 1120.217 1448.009, 1119.097 1448.858, 1122.500 1448.344 C 1125.600 1447.876, 1126.246 1448.011, 1125.372 1448.947 C 1124.025 1450.391, 1117.789 1451.943, 1113.204 1451.976 C 1109.539 1452.003, 1095 1458.403, 1095 1459.990 C 1095 1461.361, 1094.870 1461.392, 1103.341 1458 C 1107.462 1456.350, 1112.409 1455, 1114.336 1455 C 1120.135 1455, 1145.606 1448.537, 1147.577 1446.566 C 1148.348 1445.794, 1150.303 1444.873, 1151.921 1444.517 C 1153.538 1444.162, 1155.398 1443.225, 1156.053 1442.436 C 1156.709 1441.646, 1158.058 1441, 1159.051 1441 C 1160.044 1441, 1161.522 1440.335, 1162.335 1439.522 C 1163.147 1438.710, 1166.013 1437.177, 1168.704 1436.117 C 1173.528 1434.215, 1184.129 1429.155, 1189 1426.429 C 1193.156 1424.103, 1195.946 1425.140, 1192.725 1427.813 C 1190.911 1429.319, 1169.706 1439.964, 1168.482 1439.984 C 1167.922 1439.993, 1165.897 1441.048, 1163.982 1442.328 C 1162.067 1443.608, 1158.475 1445.370, 1156 1446.242 C 1136.356 1453.165, 1129.896 1455.286, 1118.500 1458.552 C 1111.350 1460.602, 1102.800 1463.003, 1099.500 1463.888 C 1096.200 1464.773, 1093.275 1465.728, 1093 1466.010 C 1092.204 1466.827, 1075.734 1474.703, 1073.250 1475.454 C 1072.013 1475.828, 1071 1476.498, 1071 1476.943 C 1071 1477.881, 1056.273 1485.151, 1050.750 1486.940 C 1048.688 1487.608, 1047 1488.620, 1047 1489.189 C 1047 1490.540, 1053.237 1489.396, 1058.534 1487.073 C 1060.752 1486.100, 1064.240 1484.990, 1066.284 1484.607 C 1068.328 1484.223, 1070 1483.494, 1070 1482.986 C 1070 1482.478, 1069.213 1482.334, 1068.250 1482.666 C 1066.796 1483.167, 1066.830 1483.012, 1068.451 1481.751 C 1069.946 1480.588, 1070.816 1480.493, 1072.179 1481.344 C 1073.510 1482.175, 1074.781 1482.117, 1077.229 1481.116 C 1079.028 1480.380, 1082.300 1479.170, 1084.500 1478.428 C 1109.468 1470.003, 1120.946 1465.506, 1122.517 1463.532 C 1123.077 1462.830, 1125.367 1461.945, 1127.608 1461.566 C 1129.848 1461.188, 1132.962 1460.214, 1134.527 1459.401 C 1136.093 1458.589, 1139.427 1457.469, 1141.937 1456.912 C 1144.447 1456.355, 1149.425 1454.530, 1153 1452.856 C 1163.121 1448.118, 1164.924 1447.310, 1174 1443.451 C 1178.675 1441.463, 1183.175 1439.257, 1184 1438.548 C 1184.825 1437.840, 1189.325 1435.562, 1194 1433.487 C 1203.638 1429.210, 1216.309 1420.999, 1229.500 1410.485 C 1238.636 1403.202, 1262.648 1386.490, 1270.304 1382.086 C 1272.612 1380.758, 1285.015 1371.758, 1297.867 1362.086 C 1329.202 1338.504, 1329.421 1338.349, 1328.192 1340.624 C 1327.635 1341.656, 1323.398 1346.100, 1318.778 1350.500 C 1300.819 1367.602, 1295.298 1372.057, 1279.261 1382.389 C 1258.469 1395.785, 1238.795 1411.128, 1240.379 1412.712 C 1241.035 1413.368, 1252.311 1405.854, 1266.718 1395.160 C 1273.638 1390.023, 1280.357 1385.339, 1281.650 1384.750 C 1282.942 1384.161, 1284 1383.332, 1284 1382.907 C 1284 1382.482, 1284.847 1381.866, 1285.881 1381.538 C 1286.916 1381.209, 1288.785 1380.054, 1290.034 1378.970 C 1291.284 1377.887, 1292.788 1377, 1293.376 1377 C 1293.965 1377, 1291.759 1379.616, 1288.473 1382.814 C 1285.188 1386.012, 1278.591 1392.738, 1273.813 1397.760 C 1269.036 1402.783, 1261.723 1409.409, 1257.563 1412.485 C 1253.404 1415.562, 1250 1418.511, 1250 1419.039 C 1250 1421.904, 1255.833 1418.384, 1272.941 1405.197 C 1280.531 1399.346, 1327.180 1356.828, 1338.997 1344.990 C 1345.457 1338.519, 1368.336 1310.409, 1377.649 1297.500 C 1382.014 1291.450, 1390.291 1279.086, 1396.043 1270.024 C 1406.101 1254.176, 1418.925 1238.606, 1420.571 1240.243 C 1420.982 1240.651, 1418.482 1245.601, 1415.014 1251.243 C 1411.547 1256.884, 1406.260 1265.550, 1403.266 1270.500 C 1396.370 1281.900, 1390.579 1290.372, 1375.577 1311 C 1359.998 1332.422, 1351.328 1342.907, 1337.539 1357 C 1330.279 1364.420, 1325.452 1370.274, 1323.932 1373.500 C 1322.225 1377.122, 1317.018 1383.016, 1305.038 1394.885 C 1287.645 1412.117, 1259.434 1437.416, 1251.943 1442.500 C 1249.511 1444.150, 1242.792 1448.912, 1237.011 1453.081 C 1226.764 1460.472, 1187.346 1485.361, 1174.781 1492.373 C 1171.326 1494.301, 1157.700 1500.805, 1144.500 1506.827 C 1131.300 1512.849, 1116.134 1519.851, 1110.798 1522.388 C 1105.462 1524.925, 1100.490 1527, 1099.748 1527 C 1099.007 1527, 1097.972 1527.397, 1097.450 1527.882 C 1096.419 1528.839, 1080.743 1533.697, 1069.500 1536.544 C 1061.466 1538.578, 1059.122 1540, 1063.803 1540 C 1068.872 1540, 1108.226 1528.928, 1110.450 1526.876 C 1110.972 1526.394, 1113.020 1526, 1115 1526 C 1116.980 1526, 1119.027 1525.619, 1119.550 1525.153 C 1120.072 1524.687, 1124.325 1522.813, 1129 1520.988 C 1153.060 1511.594, 1174.670 1502.008, 1212 1484.172 C 1227.480 1476.776, 1265.866 1450.480, 1281.434 1436.607 C 1285.072 1433.366, 1288.313 1430.979, 1288.637 1431.304 C 1289.917 1432.583, 1269.495 1451.372, 1251 1465.931 C 1237.938 1476.213, 1225.678 1484.373, 1207 1495.216 C 1192.989 1503.350, 1187.409 1506.475, 1172.500 1514.541 C 1168.650 1516.624, 1162.882 1520.054, 1159.682 1522.162 C 1156.483 1524.271, 1152.766 1526.272, 1151.423 1526.609 C 1148.746 1527.281, 1147.099 1529.020, 1149.191 1528.966 C 1149.911 1528.947, 1152.300 1528.063, 1154.500 1527 C 1156.700 1525.937, 1159.008 1525.053, 1159.629 1525.034 C 1160.603 1525.005, 1163.179 1523.952, 1174.500 1518.958 C 1186.365 1513.724, 1195.084 1509.500, 1199.804 1506.698 C 1202.937 1504.838, 1207.075 1502.719, 1209 1501.990 C 1213.225 1500.391, 1231.471 1489.756, 1242.500 1482.466 C 1246.900 1479.557, 1252.525 1476.175, 1255 1474.950 C 1263.150 1470.915, 1277.021 1461.230, 1290.019 1450.500 C 1323.349 1422.984, 1327.465 1419.253, 1342.850 1402.615 C 1351.843 1392.890, 1360.843 1382.755, 1362.850 1380.093 C 1366.762 1374.906, 1386.625 1354.389, 1399.895 1341.829 C 1406.376 1335.696, 1408 1334.581, 1408 1336.265 C 1408 1337.498, 1405.516 1340.887, 1402.009 1344.436 C 1393.442 1353.107, 1385 1362.813, 1385 1363.991 C 1385 1366.960, 1389.402 1363.534, 1403.295 1349.750 C 1419.487 1333.685, 1419.053 1334.269, 1448.568 1288.923 C 1455.936 1277.604, 1459.224 1273.425, 1462.042 1271.799 C 1463.653 1270.869, 1465.068 1268.714, 1465.906 1265.916 C 1467.360 1261.055, 1471.864 1251.761, 1475.737 1245.624 C 1477.108 1243.452, 1480.602 1236.235, 1483.501 1229.587 C 1486.400 1222.939, 1489.997 1214.800, 1491.496 1211.500 C 1496.039 1201.491, 1511.110 1163.835, 1512.707 1158.500 C 1513.530 1155.750, 1514.637 1152.969, 1515.167 1152.319 C 1515.851 1151.480, 1522.693 1151.109, 1538.815 1151.039 C 1551.292 1150.984, 1563.075 1150.723, 1565 1150.459 C 1566.925 1150.195, 1584.025 1149.539, 1603 1149.001 C 1652.934 1147.584, 1738.064 1150.219, 1780.500 1154.494 C 1801.924 1156.652, 1812.717 1157.252, 1811 1156.189 C 1808.765 1154.804, 1783.019 1150.180, 1771 1149.003 C 1765.225 1148.438, 1756.675 1147.516, 1752 1146.953 C 1733.607 1144.739, 1695.496 1141.540, 1662.500 1139.440 C 1633.293 1137.582, 1552.314 1136.171, 1505.500 1136.705 M 1293.073 1186.635 C 1291.933 1188.084, 1291 1190.040, 1291 1190.981 C 1291 1191.923, 1290.278 1194.140, 1289.396 1195.909 C 1288.513 1197.677, 1288.046 1199.380, 1288.358 1199.692 C 1288.670 1200.003, 1289.464 1199.075, 1290.123 1197.629 C 1290.782 1196.183, 1291.656 1195, 1292.065 1195 C 1292.967 1195, 1298 1186.581, 1298 1185.072 C 1298 1183.081, 1295.159 1183.982, 1293.073 1186.635 M 1286.184 1203.496 C 1285.556 1204.873, 1284.601 1206, 1284.060 1206 C 1283.047 1206, 1280.531 1213.864, 1281.299 1214.632 C 1281.932 1215.266, 1284.399 1211.123, 1286.364 1206.125 C 1288.213 1201.423, 1288.071 1199.354, 1286.184 1203.496 M 1270.354 1227.277 C 1260.701 1237.231, 1251.450 1250, 1253.891 1250 C 1257.136 1250, 1278.609 1223.276, 1276.811 1221.477 C 1276.578 1221.245, 1273.673 1223.855, 1270.354 1227.277 M 1297.839 1260.773 C 1295.341 1263.373, 1291.994 1267.299, 1290.399 1269.498 C 1288.805 1271.697, 1284.912 1276.719, 1281.750 1280.658 C 1276.548 1287.138, 1274.621 1290.725, 1276.823 1289.833 C 1280.304 1288.423, 1304.152 1257.818, 1302.813 1256.479 C 1302.574 1256.241, 1300.336 1258.173, 1297.839 1260.773 M 1234.868 1262.208 C 1231.916 1265.202, 1227.025 1270.655, 1224 1274.327 C 1220.975 1277.998, 1216.822 1282.181, 1214.772 1283.622 C 1209.610 1287.249, 1195.960 1301.664, 1193.144 1306.461 L 1190.818 1310.422 1195.659 1305.979 C 1198.322 1303.536, 1206.972 1294.885, 1214.882 1286.754 C 1222.792 1278.624, 1230.313 1271.708, 1231.596 1271.386 C 1234.199 1270.733, 1242.009 1262.754, 1241.985 1260.772 C 1241.976 1260.073, 1241.580 1258.885, 1241.103 1258.133 C 1240.442 1257.089, 1238.965 1258.055, 1234.868 1262.208 M 700.532 1288.569 C 705.505 1292.620, 713.649 1296.685, 714.695 1295.638 C 714.906 1295.428, 711.798 1293.231, 707.789 1290.756 C 694.519 1282.565, 692.363 1281.915, 700.532 1288.569 M 1180.599 1310 C 1177.931 1312.750, 1175.230 1315, 1174.597 1315 C 1173.963 1315, 1172.443 1315.702, 1171.219 1316.559 C 1169.422 1317.818, 1169.193 1318.492, 1170.032 1320.059 C 1170.603 1321.127, 1171.658 1322, 1172.376 1322 C 1173.591 1322, 1186.094 1308.143, 1186.833 1305.977 C 1187.600 1303.729, 1185.144 1305.314, 1180.599 1310 M 1119.500 1355.560 C 1115.100 1357.974, 1109.362 1360.724, 1106.750 1361.672 C 1102.410 1363.246, 1100.463 1365, 1103.055 1365 C 1106.566 1365, 1129 1353.281, 1129 1351.447 C 1129 1350.542, 1127.325 1351.267, 1119.500 1355.560 M 1061.465 1397.056 C 1061.060 1397.712, 1057.864 1399.547, 1054.364 1401.134 C 1050.864 1402.721, 1048 1404.474, 1048 1405.029 C 1048 1406.438, 1052.943 1405.190, 1056.095 1402.984 C 1057.523 1401.986, 1060.178 1400.934, 1061.996 1400.648 C 1065.714 1400.062, 1069.743 1397, 1066.796 1397 C 1065.898 1397, 1064.497 1396.744, 1063.683 1396.432 C 1062.869 1396.119, 1061.871 1396.400, 1061.465 1397.056 M 1199 1406.118 C 1196.525 1407.747, 1192.981 1409.980, 1191.124 1411.081 C 1189.267 1412.181, 1187.975 1413.308, 1188.253 1413.586 C 1188.778 1414.112, 1195.681 1410.240, 1202.390 1405.657 C 1204.529 1404.196, 1205.654 1403.035, 1204.890 1403.078 C 1204.125 1403.121, 1201.475 1404.489, 1199 1406.118 M 1198.804 1439.327 C 1193.899 1442.920, 1191.510 1446, 1193.628 1446 C 1194.921 1446, 1205.548 1439.656, 1206.750 1438.167 C 1210.543 1433.467, 1205.872 1434.149, 1198.804 1439.327 M 1146 1440.067 C 1143.525 1441.094, 1138.150 1443.187, 1134.056 1444.717 C 1129.616 1446.377, 1127.416 1447.618, 1128.603 1447.793 C 1131.258 1448.184, 1154.317 1440.549, 1154.793 1439.121 C 1155.342 1437.474, 1151.165 1437.923, 1146 1440.067 M 1174.055 1455.855 C 1167.864 1459.053, 1166.521 1461, 1170.507 1461 C 1173.489 1461, 1180.945 1456.194, 1180.979 1454.250 C 1181.009 1452.490, 1180.215 1452.674, 1174.055 1455.855 M 1153 1468.707 C 1149.975 1470.155, 1147.275 1471.631, 1147 1471.986 C 1146.725 1472.341, 1143.922 1474.092, 1140.771 1475.877 C 1137.620 1477.662, 1134.751 1479.593, 1134.396 1480.168 C 1133.362 1481.841, 1137.842 1480.142, 1144.500 1476.338 C 1147.800 1474.452, 1152.621 1471.947, 1155.213 1470.772 C 1159.689 1468.742, 1162.338 1465.958, 1159.719 1466.037 C 1159.048 1466.057, 1156.025 1467.258, 1153 1468.707 M 1047.500 1472.001 C 1044.200 1473.018, 1038.350 1474.827, 1034.500 1476.022 C 1030.650 1477.217, 1025.475 1478.559, 1023 1479.004 C 1020.525 1479.449, 1012.946 1481.430, 1006.159 1483.407 C 999.371 1485.383, 993.045 1487, 992.100 1487 C 991.155 1487, 989.509 1487.661, 988.441 1488.468 C 986.641 1489.830, 986.828 1489.939, 991.021 1489.968 C 998.307 1490.019, 1019.236 1484.531, 1020.813 1482.155 C 1021.877 1480.553, 1022.857 1480.265, 1025.678 1480.723 C 1029.956 1481.417, 1055 1473.350, 1055 1471.278 C 1055 1469.710, 1054.910 1469.718, 1047.500 1472.001" stroke="none" fill="#090909" fill-rule="evenodd"/></svg>